<svg width="25" height="35" viewBox="0 0 25 35" fill="none" xmlns="http://www.w3.org/2000/svg">
<path d="M17.3365 34.9353C18.005 34.8043 18.6872 34.3359 19.0458 33.7635C19.3698 33.2602 19.4317 32.9157 19.5282 31.0826C19.6456 28.9874 19.8795 23.8455 19.9487 22.0466L19.9969 20.7578L20.4861 20.5717C21.8232 20.0479 22.8089 19.4481 23.5256 18.7108C24.3115 17.8976 24.7111 17.0775 24.9109 15.8506C25.421 12.7147 23.7391 9.34435 20.0448 6.10507C19.6106 5.71915 19.1556 5.33323 19.0454 5.25043C18.8388 5.08483 18.8388 5.07799 18.7974 4.25107C18.7491 3.28627 18.6044 2.77615 18.1839 2.05939C17.8117 1.43227 17.3639 0.956706 16.7709 0.556746C16.1712 0.156786 15.6542 -0.0498529 14.9443 -0.180533C14.2963 -0.297893 6.55631 -0.318414 5.85323 -0.201414C3.77855 0.129427 2.20715 1.69399 1.90403 3.70639C1.84895 4.09231 1.72475 4.45087 1.46987 4.99519C0.704872 6.61483 0.249831 8.15887 0.111951 9.61975C0.0223117 10.6191 0.132473 14.5341 0.298073 16.126C0.429113 17.3461 0.697676 18.8829 0.890636 19.455C1.46268 21.1711 2.63447 22.0534 4.34375 22.0534L4.94351 22.0534L5.19839 22.5358C5.36399 22.853 5.59799 23.1629 5.89463 23.4319C6.70103 24.1832 7.31447 24.3967 8.74115 24.3967L9.67175 24.3967L9.84419 24.7963C9.96119 25.058 10.175 25.3478 10.499 25.6786C11.2986 26.4919 11.9603 26.7399 13.3387 26.7399L14.1797 26.7399L14.2002 29.8967L14.2207 33.0467L14.4137 33.4327C14.7996 34.2186 15.4822 34.7629 16.3091 34.9353C16.7231 35.0181 16.916 35.025 17.3365 34.9353ZM16.2684 33.7361C15.8756 33.5705 15.5102 33.171 15.3932 32.7782C15.3036 32.4888 15.2899 31.3515 15.2899 25.1069C15.2899 20.5443 15.2622 17.7251 15.2211 17.6495C15.1866 17.5808 15.0627 17.4843 14.9454 17.4361C14.7042 17.3327 14.3665 17.4361 14.256 17.6495C14.2146 17.7255 14.1869 19.3174 14.1869 21.7024L14.1869 25.6379L13.532 25.6379C12.8016 25.6379 12.2774 25.5483 11.8915 25.3485C11.4988 25.1487 11.03 24.6523 10.8234 24.2044L10.6373 23.8117L10.6027 20.4482L10.5682 17.0779L10.4026 16.9468C10.1819 16.7675 9.83735 16.7744 9.65123 16.9745C9.49967 17.1329 9.49967 17.1607 9.48563 20.2002L9.46511 23.2605L8.87939 23.281C7.51463 23.3293 6.63947 22.902 6.14987 21.9372L5.95007 21.5376L5.91551 18.9668L5.88095 16.3892L5.71535 16.2581C5.55695 16.1271 5.26715 16.0857 5.05367 16.1685C4.77107 16.2787 4.74335 16.4993 4.74335 18.7461L4.74335 20.8827L4.17131 20.8827C3.46823 20.8827 3.05459 20.7103 2.62043 20.2347C2.08979 19.6558 1.82087 18.8631 1.57967 17.1675C1.35899 15.6238 1.29023 14.6309 1.24883 12.0947C1.20743 9.46855 1.23515 9.11035 1.60739 7.82155C1.84859 6.98743 2.08295 6.53275 2.47571 6.16735C2.90303 5.76775 3.21335 5.64355 3.91607 5.60215C4.55003 5.56075 4.75703 5.45059 4.83947 5.12659C4.90139 4.89223 4.70843 4.56139 4.49495 4.50631C4.39163 4.47859 4.00571 4.47859 3.62663 4.49947L2.94443 4.53403L2.99267 4.14811C3.17879 2.58355 4.19867 1.38439 5.64623 0.998468C6.21827 0.846908 14.4615 0.846907 15.0476 0.998467C15.5991 1.14319 16.0675 1.41211 16.5362 1.84627C17.1979 2.45971 17.5907 3.21787 17.6803 4.07251C17.7149 4.43107 17.708 4.46527 17.5633 4.51387C17.3635 4.57579 17.1979 4.96855 17.2807 5.18923C17.3153 5.28571 17.7217 5.65795 18.1767 6.02335C21.2238 8.46883 23.0022 10.757 23.643 13.066C23.7672 13.5211 23.7945 13.7965 23.7945 14.7476C23.8014 15.7606 23.7809 15.9399 23.643 16.3672C23.5533 16.6358 23.4018 16.9807 23.3121 17.1391C23.0641 17.5664 22.4229 18.2349 21.9542 18.5521C21.5888 18.8001 20.2241 19.5032 20.0934 19.5032C20.0657 19.5032 20.0451 18.7587 20.0451 17.8558C20.0451 16.1879 20.0106 15.9122 19.7834 15.7397C19.5905 15.5882 19.2319 15.6227 19.053 15.8017L18.8946 15.9601L18.8532 19.2685C18.8118 22.4527 18.7635 23.7001 18.4604 29.8067C18.3226 32.4466 18.302 32.6533 18.1573 32.9841C17.9989 33.3286 17.6886 33.6249 17.3578 33.7628C17.0953 33.8672 16.5578 33.8535 16.2684 33.7361Z" fill="#484B50"/>
</svg>
