<svg width="283" height="225" viewBox="0 0 283 225" fill="none" xmlns="http://www.w3.org/2000/svg">
<path d="M262.819 202.599C262.557 201.771 262.2 200.723 261.823 199.653C261.823 199.643 261.812 199.632 261.812 199.622C261.404 198.521 260.984 197.41 260.638 196.603C260.565 196.425 260.502 196.267 260.439 196.121C261.466 196.121 262.033 196.121 262.033 196.121C262.033 196.121 261.466 196.121 260.429 196.11C260.198 195.575 260.051 195.251 260.051 195.251C260.051 195.251 260.146 195.586 260.303 196.11C258.353 196.1 254.841 196.079 250.166 196.058C249.967 195.544 249.841 195.219 249.841 195.219C249.841 195.219 249.904 195.544 250.019 196.058C247.063 196.037 243.656 196.026 239.893 196.005C239.735 195.502 239.62 195.198 239.62 195.198C239.62 195.198 239.662 195.513 239.746 196.005C236.591 195.995 233.194 195.974 229.63 195.953C229.504 195.471 229.42 195.167 229.42 195.167C229.42 195.167 229.441 195.471 229.483 195.953C226.233 195.932 222.847 195.911 219.367 195.9C219.273 195.439 219.199 195.146 219.199 195.146C219.199 195.146 219.199 195.429 219.22 195.9C215.918 195.879 212.532 195.869 209.115 195.848C209.041 195.397 208.989 195.114 208.989 195.114C208.989 195.114 208.979 195.397 208.968 195.838C205.729 195.827 202.469 195.806 199.187 195.796C199.156 195.355 199.135 195.093 199.135 195.093C199.135 195.093 199.104 195.366 199.072 195.796C198.915 195.796 198.768 195.796 198.611 195.796C195.372 195.796 192.143 195.796 188.935 195.796C188.935 195.345 188.914 195.062 188.914 195.062C188.914 195.062 188.862 195.345 188.788 195.796C185.36 195.796 181.985 195.796 178.683 195.796C178.704 195.324 178.704 195.041 178.704 195.041C178.704 195.041 178.63 195.334 178.536 195.796C175.056 195.796 171.67 195.796 168.42 195.796C168.462 195.313 168.493 195.009 168.493 195.009C168.493 195.009 168.399 195.313 168.273 195.796C164.72 195.796 161.323 195.796 158.157 195.796C158.231 195.303 158.283 194.988 158.283 194.988C158.283 194.988 158.178 195.303 158.011 195.796C154.279 195.796 150.872 195.796 147.884 195.796C147.999 195.292 148.073 194.957 148.073 194.957C148.073 194.957 147.936 195.282 147.748 195.785C143.261 195.785 139.76 195.785 137.611 195.785C137.768 195.261 137.862 194.926 137.862 194.926C137.862 194.926 137.705 195.25 137.474 195.785C135.996 195.785 135.189 195.785 135.189 195.785C135.189 195.785 135.996 195.785 137.474 195.796C137.412 195.942 137.338 196.1 137.265 196.278C136.919 197.095 136.5 198.196 136.08 199.297C136.07 199.297 136.07 199.318 136.059 199.318C135.483 199.318 135.179 199.318 135.179 199.318C135.179 199.318 135.483 199.318 136.059 199.318C135.682 200.377 135.315 201.425 135.053 202.253C133.187 202.253 132.139 202.253 132.139 202.253C132.139 202.253 133.187 202.253 135.042 202.264C135.032 202.295 135.021 202.326 135.011 202.347C134.749 203.197 134.581 203.763 134.581 203.763C134.581 203.763 134.833 203.228 135.179 202.41C135.2 202.358 135.221 202.306 135.242 202.253C137.579 202.264 141.154 202.285 145.641 202.306C145.442 203.008 145.316 203.501 145.316 203.553C145.326 203.7 145.525 203.364 145.798 202.714C145.808 202.693 145.819 202.672 145.829 202.641C145.871 202.547 145.913 202.421 145.955 202.295C149.016 202.316 152.476 202.326 156.26 202.347C156.134 202.872 156.061 203.249 156.071 203.333C156.082 203.605 156.249 203.459 156.47 202.945C156.47 202.934 156.48 202.914 156.49 202.882C156.543 202.746 156.595 202.557 156.648 202.347C159.866 202.358 163.304 202.379 166.9 202.4C166.837 202.756 166.795 203.029 166.806 203.134C166.827 203.543 166.963 203.574 167.131 203.186C167.141 203.176 167.141 203.155 167.152 203.134C167.204 202.976 167.256 202.725 167.319 202.41C170.621 202.431 174.049 202.442 177.572 202.463C177.551 202.662 177.54 202.83 177.54 202.945C177.572 203.501 177.676 203.7 177.781 203.448C177.781 203.438 177.781 203.417 177.792 203.385C177.834 203.228 177.886 202.893 177.949 202.463C184.627 202.494 191.598 202.526 198.579 202.568C205.802 202.568 213.014 202.568 219.891 202.568C219.944 202.997 220.007 203.333 220.038 203.49C220.048 203.522 220.048 203.542 220.048 203.553C220.164 203.805 220.269 203.616 220.3 203.06C220.311 202.955 220.3 202.788 220.279 202.578C223.801 202.578 227.229 202.578 230.531 202.578C230.594 202.903 230.647 203.155 230.699 203.312C230.71 203.333 230.71 203.354 230.72 203.364C230.877 203.752 231.024 203.731 231.045 203.322C231.056 203.207 231.014 202.934 230.961 202.578C234.567 202.578 237.995 202.578 241.203 202.578C241.255 202.788 241.308 202.987 241.35 203.113C241.36 203.144 241.371 203.155 241.371 203.176C241.591 203.7 241.759 203.847 241.769 203.563C241.769 203.48 241.696 203.102 241.58 202.568C245.375 202.568 248.845 202.568 251.885 202.568C251.927 202.693 251.969 202.809 252 202.914C252.011 202.934 252.021 202.966 252.032 202.987C252.304 203.637 252.504 203.962 252.514 203.826C252.514 203.773 252.399 203.28 252.2 202.578C256.812 202.578 260.408 202.578 262.599 202.578C262.62 202.63 262.641 202.683 262.662 202.735C262.997 203.553 263.249 204.088 263.249 204.088C263.249 204.088 263.091 203.522 262.84 202.672C262.84 202.672 262.829 202.63 262.819 202.599C264.265 202.61 265.052 202.61 265.052 202.61C265.052 202.61 264.255 202.599 262.819 202.599ZM188.841 198.699C188.883 197.892 188.925 197.095 188.935 196.456C188.935 196.362 188.935 196.278 188.935 196.194C188.935 196.152 188.935 196.121 188.935 196.079C192.132 196.089 195.372 196.11 198.6 196.131C198.747 196.131 198.894 196.131 199.041 196.131C199.03 196.183 199.03 196.215 199.03 196.267C198.978 196.959 198.967 197.892 198.946 198.825C198.946 198.993 198.957 199.171 198.957 199.349C198.831 199.349 198.705 199.349 198.59 199.349C195.309 199.349 192.028 199.349 188.778 199.349C188.809 199.129 188.83 198.909 188.841 198.699ZM158.031 196.498C158.063 196.383 158.073 196.278 158.094 196.173C158.115 196.079 158.126 195.995 158.136 195.911C161.292 195.921 164.667 195.942 168.221 195.963C168.2 196.047 168.179 196.121 168.158 196.215C168.137 196.299 168.116 196.404 168.106 196.498C167.917 197.211 167.718 198.123 167.519 199.045C167.498 199.14 167.487 199.234 167.466 199.328C163.933 199.328 160.568 199.328 157.444 199.328C157.476 199.213 157.497 199.087 157.528 198.972C157.717 198.081 157.895 197.2 158.031 196.498ZM147.811 196.1C147.832 196.016 147.853 195.942 147.863 195.859C150.84 195.869 154.237 195.89 157.958 195.911C157.927 196.016 157.895 196.121 157.853 196.236C157.832 196.32 157.811 196.414 157.78 196.498C157.549 197.242 157.287 198.175 157.025 199.129C157.015 199.203 156.994 199.265 156.983 199.328C153.251 199.328 149.855 199.328 146.92 199.328C146.972 199.161 147.014 199.003 147.066 198.836C147.318 197.955 147.549 197.106 147.727 196.414C147.758 196.309 147.79 196.204 147.811 196.1ZM137.433 196.351C137.495 196.152 137.548 195.974 137.6 195.806C139.739 195.817 143.24 195.838 147.716 195.859C147.664 195.995 147.622 196.121 147.559 196.267C147.528 196.351 147.507 196.425 147.475 196.508C147.192 197.274 146.878 198.238 146.553 199.213C146.542 199.255 146.532 199.286 146.521 199.328C141.689 199.328 138.145 199.328 136.405 199.328C136.793 198.249 137.17 197.169 137.433 196.351ZM145.683 202.232C145.672 202.243 145.672 202.253 145.672 202.274C141.185 202.274 137.611 202.274 135.263 202.274C135.598 201.477 135.996 200.45 136.384 199.423C136.395 199.391 136.405 199.37 136.416 199.339C138.156 199.349 141.689 199.37 146.511 199.391C146.448 199.601 146.385 199.8 146.322 200.01C146.07 200.817 145.84 201.593 145.683 202.232ZM156.344 202.085C156.333 202.148 156.312 202.211 156.302 202.274C152.517 202.274 149.058 202.274 145.997 202.274C146.07 202.085 146.133 201.876 146.207 201.645C146.416 201.016 146.647 200.303 146.867 199.59C146.888 199.528 146.909 199.465 146.92 199.402C149.855 199.423 153.241 199.433 156.962 199.454C156.931 199.601 156.889 199.758 156.847 199.915C156.648 200.691 156.47 201.446 156.344 202.085ZM166.994 201.939C166.973 202.054 166.952 202.169 166.931 202.274C163.325 202.274 159.897 202.274 156.679 202.274C156.721 202.127 156.753 201.991 156.784 201.823C156.962 201.205 157.151 200.481 157.329 199.748C157.35 199.643 157.371 199.548 157.392 199.454C160.516 199.465 163.881 199.486 167.414 199.507C167.393 199.611 167.372 199.716 167.351 199.821C167.225 200.576 167.099 201.31 166.994 201.939ZM177.897 199.716C177.802 200.45 177.718 201.163 177.656 201.792C177.624 201.97 177.614 202.127 177.582 202.274C174.06 202.274 170.632 202.274 167.34 202.274C167.361 202.19 167.372 202.106 167.382 202.012C167.529 201.393 167.676 200.66 167.812 199.905C167.833 199.769 167.854 199.632 167.875 199.496C171.093 199.517 174.458 199.528 177.907 199.549C177.918 199.601 177.907 199.664 177.897 199.716ZM177.96 199.339C174.5 199.339 171.146 199.339 167.927 199.339C167.938 199.255 167.959 199.192 167.969 199.119C168.116 198.207 168.252 197.305 168.336 196.582C168.357 196.467 168.378 196.362 168.378 196.267C168.389 196.163 168.399 196.068 168.41 195.974C171.649 195.995 175.024 196.005 178.494 196.026C178.484 196.089 178.473 196.142 178.463 196.204C178.442 196.299 178.431 196.404 178.421 196.508C178.285 197.2 178.148 198.081 178.012 198.972C177.991 199.087 177.97 199.213 177.96 199.339ZM177.991 202.274C178.001 202.243 178.001 202.222 178.001 202.201C178.106 201.582 178.211 200.838 178.305 200.073C178.326 199.905 178.347 199.727 178.368 199.549C181.639 199.569 184.994 199.59 188.39 199.601C188.359 199.947 188.348 200.293 188.338 200.597C188.296 200.985 188.285 201.31 188.296 201.54C188.317 201.907 188.348 202.159 188.401 202.274C184.868 202.274 181.387 202.274 177.991 202.274ZM188.401 199.339C185.015 199.339 181.66 199.339 178.389 199.339C178.389 199.307 178.389 199.276 178.4 199.255C178.494 198.322 178.589 197.4 178.63 196.645C178.641 196.529 178.651 196.425 178.651 196.33C178.662 196.215 178.662 196.121 178.662 196.016C181.954 196.037 185.329 196.047 188.746 196.068C188.736 196.131 188.725 196.194 188.725 196.257C188.642 196.823 188.558 197.525 188.484 198.27C188.463 198.479 188.442 198.689 188.432 198.899C188.421 199.045 188.411 199.182 188.401 199.339ZM198.59 202.274C195.204 202.274 191.818 202.274 188.463 202.274C188.495 202.117 188.547 201.739 188.6 201.215C188.663 200.754 188.715 200.188 188.767 199.601C192.017 199.622 195.309 199.632 198.6 199.653C198.716 199.653 198.842 199.653 198.967 199.653C198.978 200.282 198.999 200.88 199.02 201.373C199.041 201.76 199.062 202.075 199.083 202.274C198.925 202.274 198.758 202.274 198.59 202.274ZM260.303 196.121C260.355 196.288 260.408 196.467 260.471 196.666C260.722 197.494 261.1 198.574 261.487 199.653C260.198 199.643 256.592 199.632 251.371 199.601C251.361 199.559 251.35 199.528 251.34 199.486C251.026 198.511 250.701 197.536 250.438 196.771C250.407 196.687 250.386 196.603 250.355 196.519C250.302 196.372 250.25 196.236 250.197 196.121C254.841 196.121 258.353 196.121 260.303 196.121ZM250.03 196.121C250.051 196.204 250.061 196.278 250.082 196.362C250.113 196.467 250.134 196.571 250.166 196.687C250.334 197.368 250.564 198.228 250.805 199.108C250.847 199.276 250.9 199.433 250.952 199.601C248.038 199.59 244.652 199.569 240.899 199.549C240.878 199.486 240.868 199.412 240.847 199.349C240.595 198.395 240.333 197.452 240.113 196.718C240.092 196.624 240.06 196.54 240.039 196.446C239.997 196.32 239.966 196.225 239.935 196.121C243.677 196.121 247.073 196.121 250.03 196.121ZM239.767 196.121C239.777 196.204 239.788 196.288 239.809 196.383C239.83 196.487 239.851 196.592 239.872 196.708C239.997 197.41 240.176 198.291 240.375 199.192C240.406 199.318 240.427 199.433 240.459 199.549C237.335 199.538 233.97 199.517 230.427 199.496C230.406 199.402 230.385 199.307 230.374 199.213C230.185 198.291 229.986 197.379 229.808 196.666C229.787 196.561 229.766 196.467 229.756 196.383C229.724 196.288 229.714 196.215 229.693 196.131C233.236 196.121 236.622 196.121 239.767 196.121ZM208.968 196.121C208.968 196.163 208.968 196.194 208.968 196.246C208.968 196.33 208.968 196.414 208.978 196.508C208.978 197.148 209.01 197.945 209.052 198.752C209.062 198.961 209.083 199.182 209.094 199.391C205.844 199.37 202.573 199.36 199.282 199.339C199.282 199.161 199.292 198.993 199.292 198.815C199.282 197.882 199.271 196.959 199.229 196.257C199.229 196.204 199.219 196.163 199.219 196.121C202.479 196.121 205.739 196.121 208.968 196.121ZM199.135 202.274C199.156 202.075 199.177 201.771 199.208 201.373C199.24 200.89 199.25 200.282 199.271 199.653C202.563 199.653 205.855 199.653 209.104 199.653C209.157 200.24 209.209 200.796 209.262 201.268C209.314 201.792 209.366 202.169 209.398 202.316C206.001 202.316 202.573 202.295 199.135 202.274ZM209.398 198.322C209.324 197.588 209.251 196.875 209.167 196.309C209.157 196.246 209.157 196.183 209.146 196.121C212.564 196.121 215.929 196.121 219.231 196.121C219.231 196.225 219.231 196.32 219.241 196.435C219.252 196.54 219.252 196.645 219.262 196.75C219.304 197.494 219.388 198.416 219.482 199.36C219.482 199.381 219.493 199.412 219.493 199.444C216.222 199.423 212.878 199.412 209.482 199.391C209.471 199.244 209.461 199.098 209.45 198.94C209.44 198.741 209.419 198.532 209.398 198.322ZM209.482 202.326C209.524 202.222 209.566 201.97 209.587 201.593C209.607 201.373 209.587 201.037 209.545 200.649C209.534 200.345 209.513 199.999 209.492 199.653C212.889 199.653 216.243 199.653 219.514 199.653C219.535 199.821 219.556 199.999 219.577 200.167C219.671 200.932 219.765 201.677 219.87 202.295C219.87 202.326 219.87 202.347 219.881 202.368C216.484 202.368 213.004 202.347 209.482 202.326ZM219.881 199.066C219.755 198.165 219.619 197.284 219.482 196.592C219.461 196.487 219.451 196.393 219.44 196.288C219.43 196.225 219.419 196.173 219.399 196.11C222.879 196.11 226.254 196.11 229.494 196.11C229.504 196.204 229.515 196.299 229.525 196.404C229.536 196.508 229.546 196.613 229.567 196.718C229.651 197.441 229.787 198.343 229.934 199.265C229.944 199.339 229.965 199.412 229.976 199.486C226.758 199.475 223.393 199.454 219.933 199.433C219.912 199.318 219.891 199.192 219.881 199.066ZM220.269 202.389C220.248 202.243 220.227 202.085 220.206 201.907C220.153 201.278 220.069 200.565 219.975 199.832C219.965 199.769 219.965 199.716 219.954 199.664C223.413 199.664 226.778 199.664 229.986 199.664C230.007 199.8 230.028 199.936 230.049 200.073C230.185 200.827 230.322 201.561 230.458 202.18C230.479 202.274 230.489 202.358 230.5 202.442C227.229 202.421 223.791 202.4 220.269 202.389ZM230.93 202.431C230.909 202.326 230.888 202.222 230.867 202.096C230.773 201.467 230.647 200.733 230.51 199.968C230.489 199.863 230.468 199.758 230.448 199.653C233.991 199.653 237.356 199.653 240.48 199.653C240.501 199.758 240.522 199.853 240.543 199.957C240.731 200.691 240.909 201.425 241.077 202.043C241.119 202.211 241.151 202.347 241.182 202.494C237.974 202.473 234.536 202.452 230.93 202.431ZM241.57 202.494C241.549 202.431 241.538 202.368 241.528 202.306C241.402 201.677 241.224 200.922 241.035 200.136C240.993 199.989 240.962 199.821 240.92 199.664C244.673 199.664 248.059 199.664 250.963 199.664C250.984 199.727 250.994 199.79 251.015 199.853C251.235 200.576 251.466 201.289 251.665 201.918C251.728 202.148 251.801 202.358 251.864 202.547C248.835 202.526 245.375 202.515 241.57 202.494ZM252.2 202.547C252.2 202.526 252.2 202.515 252.189 202.505C252.032 201.865 251.801 201.089 251.56 200.282C251.508 200.073 251.434 199.863 251.382 199.664C256.592 199.664 260.188 199.664 261.477 199.664C261.477 199.695 261.498 199.716 261.498 199.748C261.886 200.785 262.274 201.802 262.599 202.599C260.418 202.589 256.823 202.568 252.2 202.547Z" fill="#484B50"/>
<path d="M198.076 109.857C201.399 112.781 205.288 116.199 209.439 119.857C213.622 123.484 218.077 127.363 222.543 131.242C227.03 135.079 231.516 138.926 235.731 142.532C239.966 146.107 243.907 149.451 247.293 152.312C250.7 155.143 253.541 157.512 255.533 159.168C257.525 160.814 258.657 161.758 258.657 161.758C258.657 161.758 257.556 160.772 255.627 159.043C253.698 157.313 250.952 154.849 247.65 151.904C244.327 148.979 240.437 145.561 236.286 141.903C232.104 138.276 227.638 134.387 223.183 130.518C218.696 126.671 214.209 122.835 210.006 119.228C205.77 115.654 201.829 112.31 198.443 109.448C195.036 106.617 192.195 104.248 190.214 102.592C188.222 100.946 187.09 100.003 187.09 100.003C187.09 100.003 188.18 100.988 190.109 102.718C192.017 104.447 194.774 106.911 198.076 109.857Z" fill="#484B50"/>
<path d="M248.248 157.439C244.924 154.514 241.035 151.096 236.884 147.438C232.701 143.811 228.246 139.932 223.78 136.053C219.294 132.206 214.807 128.369 210.593 124.763C206.368 121.189 202.416 117.845 199.03 114.983C195.623 112.152 192.782 109.783 190.791 108.127C188.799 106.481 187.656 105.538 187.656 105.538C187.656 105.538 188.757 106.523 190.675 108.253C192.604 109.972 195.361 112.435 198.663 115.392C201.997 118.316 205.876 121.734 210.037 125.392C214.209 129.019 218.675 132.898 223.141 136.777C227.628 140.624 232.114 144.461 236.328 148.067C240.553 151.642 244.505 154.986 247.891 157.847C251.298 160.678 254.139 163.037 256.131 164.693C258.122 166.349 259.265 167.282 259.265 167.282C259.265 167.282 258.164 166.297 256.246 164.567C254.307 162.858 251.56 160.395 248.248 157.439Z" fill="#484B50"/>
<path d="M155.286 128.223C158.263 130.854 161.743 133.925 165.475 137.207C169.228 140.467 173.222 143.947 177.227 147.427C181.252 150.876 185.288 154.315 189.062 157.554C192.857 160.762 196.41 163.749 199.45 166.318C202.49 168.875 205.069 170.962 206.851 172.45C208.644 173.928 209.671 174.767 209.671 174.767C209.671 174.767 208.686 173.876 206.967 172.324C205.237 170.773 202.805 168.529 199.817 165.909C196.84 163.278 193.349 160.206 189.628 156.925C185.875 153.665 181.871 150.184 177.877 146.704C173.841 143.255 169.815 139.806 166.041 136.578C162.236 133.37 158.693 130.382 155.653 127.814C152.592 125.277 150.034 123.159 148.252 121.681C146.459 120.203 145.442 119.365 145.442 119.365C145.442 119.365 146.428 120.256 148.147 121.807C149.856 123.348 152.33 125.56 155.286 128.223Z" fill="#484B50"/>
<path d="M158.47 140.446C161.762 143.371 165.274 146.494 168.786 149.618C172.329 152.711 175.872 155.793 179.195 158.697C182.539 161.569 185.663 164.253 188.336 166.548C193.704 171.119 197.341 174.106 197.341 174.106C197.341 174.106 193.913 170.888 188.703 166.139C186.083 163.781 183.032 161.024 179.761 158.068C176.47 155.143 172.947 152.019 169.436 148.895C165.892 145.803 162.349 142.721 159.026 139.817C155.682 136.944 152.558 134.261 149.885 131.965C144.518 127.395 140.891 124.407 140.891 124.407C140.891 124.407 144.308 127.625 149.529 132.374C152.149 134.733 155.2 137.49 158.47 140.446Z" fill="#484B50"/>
<path d="M282.884 221.269C282.894 221.206 282.905 221.143 282.915 221.07C279.718 216.133 274.288 202.966 268.648 193.028C268.019 192.011 267.254 191.131 266.216 190.554C266.205 190.554 266.195 190.544 266.195 190.544C265.545 189.999 264.654 189.474 263.794 189.453C263.857 189.328 263.972 189.212 264.161 189.16C264.643 189.013 265.105 188.688 265.503 188.279C266.614 186.372 266.614 184.149 266.813 181.885C266.321 168.341 266.52 154.755 266.541 141.201C266.562 126.388 266.216 111.481 266.771 96.6796C266.74 96.4804 266.708 96.2917 266.666 96.0926C266.656 95.3168 266.499 94.5516 266.058 93.8597C265.87 93.5662 265.66 93.346 265.44 93.1573C264.538 92.738 263.406 92.6646 262.138 92.5808C262.044 92.5808 261.949 92.5808 261.865 92.5703C261.834 92.5808 261.802 92.5913 261.771 92.5913C236.612 92.413 136.867 92.109 133.827 92.4864C133.46 92.6751 133.114 92.9267 132.8 93.2307C132.233 93.7653 131.992 94.4572 131.919 95.191C131.888 95.2854 131.856 95.3483 131.825 95.4531C131.762 95.7466 131.72 96.0401 131.667 96.3232C132.15 111.136 131.741 126.032 131.678 140.855C131.625 154.399 131.762 167.995 131.206 181.528C131.311 182.818 131.29 184.202 131.479 185.48C131.615 187.158 132.233 188.625 134.141 188.908C132.737 189.474 131.384 190.114 130.263 191.162C129.948 191.456 129.697 191.791 129.466 192.148C129.414 192.158 129.361 192.179 129.309 192.169C129.267 192.221 129.235 192.263 129.193 192.315C126.908 196.938 123.889 201.572 121.08 206.205C118.008 211.258 115.356 216.342 111.624 221.405C111.624 221.468 111.635 221.521 111.635 221.584L282.443 222.024C282.454 222.013 282.475 222.013 282.475 222.003C282.915 221.793 282.999 221.531 282.884 221.269ZM136.5 98.3988L136.51 97.7698H137.223C147.57 97.8013 157.927 97.8746 168.274 98.0004L199.324 98.2835L214.849 98.3778H230.375L261.425 98.3254H261.865V98.7238L262.054 141.043V183.363V184.128H261.205L230.144 184.013L199.094 183.772L168.043 183.499C157.696 183.436 147.339 183.237 136.993 183.122H136.909L136.647 161.883L136.51 140.718L136.469 119.553C136.479 112.509 136.437 105.454 136.5 98.3988ZM136.909 188.772C158.357 188.562 179.826 188.814 201.274 188.908C212.061 188.961 222.827 189.013 233.614 189.055C243.153 189.097 253.123 189.055 262.515 189.653C263.301 189.705 263.039 190.554 262.368 190.607C243.887 191.833 220.94 190.753 200.75 190.743C184.68 190.732 166.481 189.978 150.4 189.883C150.212 189.852 149.981 189.841 149.771 189.82C147.853 189.81 145.924 189.81 144.006 189.799C142.779 189.841 141.616 189.873 140.725 189.852C140.138 189.841 137.391 189.674 136.469 189.579C133.565 189.244 135.682 188.793 136.909 188.772ZM178.62 217.936L181.828 210.776L216.988 210.87L219.525 218.04L178.62 217.936ZM128.376 204.853L133.67 193.804L263.469 194.139L269.004 205.22L128.376 204.853Z" fill="#484B50"/>
<path d="M111.01 222.5L111 224.316L282.99 224.5L283 222.5H111.01Z" fill="#484B50"/>
<path d="M122.17 108.84L115.209 105.181C112.808 104.06 110.324 102.854 108.144 101.386C104.642 99.6567 101.592 97.8536 98.6984 95.799C92.786 91.6058 88.9807 87.6118 86.7059 83.2299C85.4061 80.714 83.8965 77.4119 83.8336 74.1832C83.8231 73.8163 83.8441 73.4389 83.8965 73.072C93.3311 77.6845 103.416 82.3494 114.108 85.1169C119.266 86.4587 125.325 86.3014 131.531 84.6871C142.098 81.9405 157.392 44.6004 157.969 38.8452C158.619 32.4087 156.533 27.3664 151.931 24.274C146.511 20.6259 140.483 17.8165 134.781 15.3216C116.425 7.29164 95.5535 2.56384 70.9606 0.865609C64.7861 0.435809 59.639 0.236633 54.754 0.236633C36.2307 0.236633 22.0473 3.23475 10.1072 9.68175C6.72122 11.5163 2.4966 13.7911 1.2701 18.2777C0.0540834 22.733 0.0226345 27.4503 0.00166865 32.0209V32.6918C-0.0717118 43.6569 2.27646 53.8358 6.78412 62.1069C7.03571 62.5681 7.29778 63.0713 7.55986 63.5745C9.18471 66.6669 11.1974 70.5142 14.248 72.3067C17.1727 74.0364 20.391 74.0993 23.4834 74.1622L24.3221 74.1832C32.8761 74.3824 41.514 73.701 49.8585 73.0301C51.8397 72.8728 53.8315 72.7156 55.8128 72.5688C57.0497 75.3468 58.8947 77.9885 61.8719 81.2801C66.8618 86.7941 72.7112 91.2913 79.7453 95.0232C80.9194 95.6417 82.1144 96.2602 83.3095 96.8577L85.4585 97.7698C90.9515 100.097 96.6333 102.498 102.378 104.458C106.026 105.705 109.936 106.628 115.041 107.435C115.219 107.466 115.387 107.498 115.565 107.54L115.974 107.624L122.17 108.84ZM102.147 100.254C103.783 101.229 105.481 102.141 107.273 103.022C108.091 103.567 108.951 104.091 109.842 104.573C107.315 104.028 105.083 103.41 102.954 102.676C102.336 102.466 101.728 102.246 101.109 102.026L101.277 102.036C101.78 102.036 102.2 101.68 102.315 101.166C102.388 100.852 102.315 100.527 102.147 100.254ZM81.0347 65.5557H80.4896L80.1436 66.1323C77.6592 71.2584 77.4914 76.8878 79.6614 82.4018C83.2151 91.48 92.1361 98.4302 99.4741 101.449C94.9665 99.772 90.4903 97.8851 86.1399 96.0401L84.0433 95.149C82.9111 94.5725 81.7265 93.9645 80.5629 93.3564C73.7176 89.7189 68.0358 85.3475 63.1823 80.0012C60.1422 76.6467 58.3496 74.0155 57.207 71.227L56.9554 70.619L56.3264 70.6714C54.125 70.8286 51.9341 71.0069 49.7327 71.1851C41.4302 71.8455 32.8447 72.5374 24.3745 72.3277L23.5254 72.3067C20.5063 72.2438 17.6654 72.1914 15.1285 70.6924C12.5183 69.1514 10.7152 65.7235 9.1323 62.6939C8.85974 62.1802 8.59767 61.6771 8.33559 61.2053C3.98518 53.2173 1.72087 43.3634 1.78377 32.7232V32.0418C1.81521 27.5971 1.83618 23.0055 2.9893 18.8019C4.00615 15.0909 7.68565 13.1097 10.9249 11.359C22.5924 5.05878 36.5242 2.12356 54.754 2.12356C59.5971 2.12356 64.7128 2.32274 70.8453 2.74205C95.2285 4.4298 115.911 9.11567 134.089 17.0722C139.718 19.5357 145.662 22.3032 150.966 25.8779C155.013 28.6034 156.774 32.9119 156.187 38.6775C155.516 45.3656 140.358 80.4939 131.101 82.8945C125.178 84.425 119.423 84.5822 114.538 83.3243C103.604 80.4939 93.2787 75.6298 83.624 70.902L82.6595 70.4303L82.3765 71.4996C82.1249 72.4221 82.0201 73.3236 82.0306 74.2461C82.1039 77.8732 83.7183 81.4478 85.123 84.1524C87.5341 88.8069 91.5281 93 97.6816 97.3819C98.6355 98.0633 99.6104 98.7132 100.606 99.3422C94.4738 96.2812 88.53 92.5388 85.4899 86.5006C81.5378 78.6699 80.4267 72.3172 82.083 67.0548L82.2297 66.5935L81.9257 66.0484C81.7161 65.7339 81.3806 65.5557 81.0347 65.5557ZM80.0598 76.8563C80.5 79.0368 81.2339 81.343 82.2612 83.7855C81.9152 83.1041 81.6008 82.4018 81.3177 81.6889C80.6783 80.0641 80.2589 78.4497 80.0598 76.8563ZM124.864 79.9593C130.525 79.5295 134.005 77.2861 137.003 72.2229C140.787 65.8178 143.932 59.8635 146.605 54.0036C147.067 52.9972 147.57 51.9594 148.083 50.8901C150.253 46.4034 152.727 41.3192 153.063 36.3922C153.367 31.9265 152.004 28.6454 148.356 25.0812L148.094 24.8296L147.601 24.7667C147.192 24.7667 146.805 25.0287 146.626 25.4271C146.438 25.8464 146.501 26.3286 146.784 26.6851C151.207 32.262 149.362 37.6292 146.49 44.0553L145.494 46.2986C144.037 49.5693 142.538 52.9553 140.903 56.205C138.806 60.3772 136.416 64.7905 133.607 69.707C132.946 70.8601 131.185 73.9316 129.717 74.9694C128.365 75.9233 126.887 76.3217 125.325 76.741L124.308 77.0241C123.679 77.2023 123.302 77.8103 123.386 78.4917C123.449 79.2045 124.057 79.9593 124.864 79.9593ZM151.228 33.8344C151.312 34.5997 151.323 35.3964 151.26 36.2664C150.956 40.816 148.576 45.722 146.48 50.0515C145.955 51.1312 145.452 52.19 144.981 53.2068C142.328 58.9934 139.225 64.8953 135.473 71.248C134.236 73.3445 132.925 74.8855 131.395 75.9758C132.757 74.6864 134.089 72.5164 135.137 70.6924C137.978 65.7549 140.378 61.2997 142.486 57.096C144.131 53.8149 145.651 50.4079 147.109 47.1058L148.104 44.8729C149.813 41.0257 151.228 37.4091 151.228 33.8344ZM118.102 78.9634L118.375 77.1184C110.387 74.9904 102.661 71.9084 95.1866 68.9312C92.0732 67.6942 88.9493 66.4468 85.7834 65.2517L85.0287 66.9395C93.6037 72.1809 102.525 75.9967 111.54 78.261C113.637 78.607 115.765 78.8271 118.102 78.9634Z" fill="#484B50"/>
<path d="M48.4157 32.941C49.7239 30.5257 51.2712 27.3682 53.0575 23.4686C54.567 20.1728 55.674 17.5814 56.3785 15.6945C56.5798 15.1158 56.781 14.7133 56.9823 14.4868C57.2087 14.2352 57.4603 14.1094 57.7371 14.1094C58.0641 14.1094 58.5799 14.4742 59.2844 15.2039C60.014 15.9083 60.3788 16.4492 60.3788 16.8266C60.3788 17.1034 60.2278 17.5311 59.9259 18.1097L57.4352 23.1289C56.8565 24.2611 56.4162 25.1291 56.1143 25.7329C55.8124 26.3367 55.4979 27.0034 55.1709 27.733L52.9065 32.3749C52.4034 33.3309 51.9882 34.1486 51.6612 34.8279C51.5354 35.1046 51.1706 35.8846 50.5668 37.1677C49.812 38.8533 49.3717 39.7968 49.2459 39.9981C48.7679 40.8535 48.2647 41.2812 47.7364 41.2812C47.4596 41.2812 47.2206 41.2309 47.0193 41.1302C46.8432 41.0296 46.6042 40.8661 46.3023 40.6396L45.7362 40.2245C45.2834 39.8974 44.994 39.5452 44.8682 39.1678C44.7676 38.7653 44.7173 37.7589 44.7173 36.1487V34.4505C44.7173 33.2429 44.7424 32.073 44.7928 30.9408C44.8431 29.7835 44.906 28.7017 44.9815 27.6953L44.7173 27.6576L40.9057 34.1486C39.1697 37.1677 38.025 39.0798 37.4715 39.8849C36.918 40.6648 36.4651 41.0547 36.1129 41.0547C35.8613 41.0547 35.6097 40.9793 35.3581 40.8283C35.3078 40.8032 35.1065 40.6522 34.7543 40.3755C34.6788 40.2748 34.5908 40.1993 34.4901 40.149C34.4147 40.0735 34.226 39.9478 33.9241 39.7716C33.6473 39.5955 33.4586 39.4068 33.358 39.2056C33.2573 39.0043 33.207 38.564 33.207 37.8847C33.207 35.9726 33.4964 32.7397 34.075 28.1859L34.4524 25.28C35.3078 18.2355 36.2639 14.7133 37.3205 14.7133C37.547 14.7133 37.8992 14.8013 38.3772 14.9774C38.6288 15.1032 38.9433 15.2039 39.3207 15.2793C39.6981 15.3296 40.0125 15.4177 40.2641 15.5435C40.5157 15.6693 40.6415 15.8706 40.6415 16.1473C40.6415 16.1976 40.478 16.814 40.1509 17.9965C39.8239 19.179 39.5219 20.4244 39.2452 21.7326C38.8427 23.5189 38.5533 24.9027 38.3772 25.8839C38.1256 27.3179 37.7482 29.8716 37.2451 33.5448C37.7734 32.6894 38.2892 31.7962 38.7923 30.8653C39.1949 30.1357 39.6477 29.2803 40.1509 28.2991L41.6227 25.431C41.7737 25.1291 42.1511 24.4121 42.7549 23.2799C43.1826 22.4497 43.9122 20.9778 44.9437 18.8645C45.4217 17.682 45.7991 16.7637 46.0759 16.1096C46.6294 14.9019 47.12 14.2981 47.5477 14.2981C47.6735 14.2981 47.8244 14.361 48.0005 14.4868C48.1766 14.5875 48.3402 14.7133 48.4911 14.8642L49.1704 15.3925C49.4723 15.5183 49.661 15.6441 49.7365 15.7699C49.812 15.8706 49.8497 16.0467 49.8497 16.2983C49.8497 16.4995 49.7994 16.9021 49.6988 17.5059C49.4975 18.789 49.3214 20.0218 49.1704 21.2043C48.6672 25.4562 48.4157 29.3684 48.4157 32.941Z" fill="#484B50"/>
<path d="M71.8018 16.5247C71.9779 16.3989 72.2798 16.2354 72.7075 16.0341C73.1603 15.8077 73.4371 15.6945 73.5377 15.6945C73.8648 15.6945 74.2422 16.2228 74.6699 17.2795C75.2234 18.6632 75.5001 20.3363 75.5001 22.2987C75.5001 27.1795 74.0032 31.5321 71.0092 35.3562C68.3172 38.803 65.6504 40.5264 63.0087 40.5264C61.6249 40.5264 60.4299 39.9603 59.4235 38.8282C58.2914 37.5702 57.7253 35.8971 57.7253 33.809C57.7253 30.8653 58.4675 27.7582 59.9519 24.4875C61.2098 21.72 62.8074 19.267 64.7446 17.1285C66.5561 15.1158 68.0153 14.1094 69.1223 14.1094C69.5249 14.1094 70.0155 14.3988 70.5941 14.9774C70.9967 15.38 71.3992 15.8957 71.8018 16.5247ZM71.2734 21.8836C71.2734 20.8017 71.1602 20.0344 70.9338 19.5815C70.7073 19.1035 70.4557 18.8645 70.179 18.8645C69.55 18.8645 68.594 19.5941 67.3109 21.0533C65.8768 22.7138 64.6818 24.6007 63.7257 26.7141C62.5432 29.3558 61.952 31.922 61.952 34.4128C61.952 35.1172 62.0526 35.6833 62.2539 36.111C62.4552 36.5387 62.7068 36.7526 63.0087 36.7526C64.2163 36.7526 65.8391 35.1927 67.8769 32.073C70.1413 28.5759 71.2734 25.1794 71.2734 21.8836Z" fill="#484B50"/>
<path d="M92.6036 32.941C93.9119 30.5257 95.4592 27.3682 97.2455 23.4686C98.755 20.1728 99.862 17.5814 100.566 15.6945C100.768 15.1158 100.969 14.7133 101.17 14.4868C101.397 14.2352 101.648 14.1094 101.925 14.1094C102.252 14.1094 102.768 14.4742 103.472 15.2039C104.202 15.9083 104.567 16.4492 104.567 16.8266C104.567 17.1034 104.416 17.5311 104.114 18.1097L101.623 23.1289C101.044 24.2611 100.604 25.1291 100.302 25.7329C100 26.3367 99.6859 27.0034 99.3588 27.733L97.0945 32.3749C96.5913 33.3309 96.1762 34.1486 95.8492 34.8279C95.7234 35.1046 95.3586 35.8846 94.7547 37.1677C94 38.8533 93.5597 39.7968 93.4339 39.9981C92.9559 40.8535 92.4527 41.2812 91.9244 41.2812C91.6476 41.2812 91.4086 41.2309 91.2073 41.1302C91.0312 41.0296 90.7922 40.8661 90.4903 40.6396L89.9242 40.2245C89.4713 39.8974 89.182 39.5452 89.0562 39.1678C88.9556 38.7653 88.9053 37.7589 88.9053 36.1487V34.4505C88.9053 33.2429 88.9304 32.073 88.9807 30.9408C89.0311 29.7835 89.094 28.7017 89.1694 27.6953L88.9053 27.6576L85.0937 34.1486C83.3577 37.1677 82.213 39.0798 81.6595 39.8849C81.106 40.6648 80.6531 41.0547 80.3009 41.0547C80.0493 41.0547 79.7977 40.9793 79.5461 40.8283C79.4958 40.8032 79.2945 40.6522 78.9423 40.3755C78.8668 40.2748 78.7788 40.1993 78.6781 40.149C78.6027 40.0735 78.414 39.9478 78.112 39.7716C77.8353 39.5955 77.6466 39.4068 77.546 39.2056C77.4453 39.0043 77.395 38.564 77.395 37.8847C77.395 35.9726 77.6843 32.7397 78.263 28.1859L78.6404 25.28C79.4958 18.2355 80.4518 14.7133 81.5085 14.7133C81.7349 14.7133 82.0872 14.8013 82.5652 14.9774C82.8168 15.1032 83.1313 15.2039 83.5087 15.2793C83.886 15.3296 84.2005 15.4177 84.4521 15.5435C84.7037 15.6693 84.8295 15.8706 84.8295 16.1473C84.8295 16.1976 84.666 16.814 84.3389 17.9965C84.0118 19.179 83.7099 20.4244 83.4332 21.7326C83.0306 23.5189 82.7413 24.9027 82.5652 25.8839C82.3136 27.3179 81.9362 29.8716 81.433 33.5448C81.9614 32.6894 82.4771 31.7962 82.9803 30.8653C83.3829 30.1357 83.8357 29.2803 84.3389 28.2991L85.8107 25.431C85.9617 25.1291 86.339 24.4121 86.9429 23.2799C87.3706 22.4497 88.1002 20.9778 89.1317 18.8645C89.6097 17.682 89.9871 16.7637 90.2639 16.1096C90.8174 14.9019 91.308 14.2981 91.7357 14.2981C91.8615 14.2981 92.0124 14.361 92.1885 14.4868C92.3646 14.5875 92.5282 14.7133 92.6791 14.8642L93.3584 15.3925C93.6603 15.5183 93.849 15.6441 93.9245 15.7699C94 15.8706 94.0377 16.0467 94.0377 16.2983C94.0377 16.4995 93.9874 16.9021 93.8868 17.5059C93.6855 18.789 93.5094 20.0218 93.3584 21.2043C92.8552 25.4562 92.6036 29.3684 92.6036 32.941Z" fill="#484B50"/>
<path d="M113.203 33.2118C113.203 33.3588 113.158 33.5646 113.07 33.8291C112.982 34.0937 112.806 34.4759 112.541 34.9756C111.218 37.4744 109.939 40.0319 108.705 42.6483C107.5 45.2646 106.485 47.6898 105.662 49.924C105.486 50.4238 105.324 50.9235 105.177 51.4233C104.913 51.9524 104.56 52.217 104.119 52.217C103.884 52.217 103.663 52.1582 103.457 52.0406C103.281 51.8936 103.046 51.629 102.752 51.2469L102.135 50.5855C101.87 50.3209 101.694 50.1298 101.605 50.0122C101.37 49.6888 101.253 49.4096 101.253 49.1744C101.253 48.7922 101.576 47.7339 102.223 45.9995C102.546 45.1176 102.884 44.2357 103.237 43.3538L105.971 36.7835C106.559 35.2549 107.176 33.741 107.823 32.2417C108.47 30.7131 109.087 29.9487 109.675 29.9487C109.998 29.9487 110.66 30.375 111.659 31.2275C112.688 32.0506 113.203 32.7121 113.203 33.2118ZM103.502 57.3762C103.502 57.5526 103.369 57.9788 103.105 58.6549C102.546 60.066 102.267 61.0067 102.267 61.4771C102.237 61.6828 102.223 61.8886 102.223 62.0944C102.164 62.2708 101.958 62.359 101.605 62.359C100.753 62.359 99.8563 62.0356 98.9156 61.3889C97.8573 60.6539 97.3281 59.8308 97.3281 58.9195C97.3281 57.9788 97.578 57.0381 98.0777 56.0974C98.6069 55.1567 99.1654 54.6863 99.7534 54.6863C100.224 54.6863 100.959 54.995 101.958 55.6123C102.987 56.2003 103.502 56.7882 103.502 57.3762Z" fill="#484B50"/>
<path d="M126.423 33.2118C126.423 33.3588 126.378 33.5646 126.29 33.8291C126.202 34.0937 126.026 34.4759 125.761 34.9756C124.438 37.4744 123.16 40.0319 121.925 42.6483C120.72 45.2646 119.705 47.6898 118.882 49.924C118.706 50.4238 118.544 50.9235 118.397 51.4233C118.133 51.9524 117.78 52.217 117.339 52.217C117.104 52.217 116.883 52.1582 116.677 52.0406C116.501 51.8936 116.266 51.629 115.972 51.2469L115.355 50.5855C115.09 50.3209 114.914 50.1298 114.825 50.0122C114.59 49.6888 114.473 49.4096 114.473 49.1744C114.473 48.7922 114.796 47.7339 115.443 45.9995C115.766 45.1176 116.104 44.2357 116.457 43.3538L119.191 36.7835C119.779 35.2549 120.396 33.741 121.043 32.2417C121.69 30.7131 122.307 29.9487 122.895 29.9487C123.218 29.9487 123.88 30.375 124.879 31.2275C125.908 32.0506 126.423 32.7121 126.423 33.2118ZM116.722 57.3762C116.722 57.5526 116.589 57.9788 116.325 58.6549C115.766 60.066 115.487 61.0067 115.487 61.4771C115.457 61.6828 115.443 61.8886 115.443 62.0944C115.384 62.2708 115.178 62.359 114.825 62.359C113.973 62.359 113.076 62.0356 112.136 61.3889C111.077 60.6539 110.548 59.8308 110.548 58.9195C110.548 57.9788 110.798 57.0381 111.298 56.0974C111.827 55.1567 112.385 54.6863 112.973 54.6863C113.444 54.6863 114.179 54.995 115.178 55.6123C116.207 56.2003 116.722 56.7882 116.722 57.3762Z" fill="#484B50"/>
<path d="M139.643 33.2118C139.643 33.3588 139.599 33.5646 139.51 33.8291C139.422 34.0937 139.246 34.4759 138.981 34.9756C137.658 37.4744 136.38 40.0319 135.145 42.6483C133.94 45.2646 132.925 47.6898 132.102 49.924C131.926 50.4238 131.764 50.9235 131.617 51.4233C131.353 51.9524 131 52.217 130.559 52.217C130.324 52.217 130.103 52.1582 129.898 52.0406C129.721 51.8936 129.486 51.629 129.192 51.2469L128.575 50.5855C128.31 50.3209 128.134 50.1298 128.046 50.0122C127.81 49.6888 127.693 49.4096 127.693 49.1744C127.693 48.7922 128.016 47.7339 128.663 45.9995C128.986 45.1176 129.324 44.2357 129.677 43.3538L132.411 36.7835C132.999 35.2549 133.616 33.741 134.263 32.2417C134.91 30.7131 135.527 29.9487 136.115 29.9487C136.438 29.9487 137.1 30.375 138.099 31.2275C139.128 32.0506 139.643 32.7121 139.643 33.2118ZM129.942 57.3762C129.942 57.5526 129.809 57.9788 129.545 58.6549C128.986 60.066 128.707 61.0067 128.707 61.4771C128.678 61.6828 128.663 61.8886 128.663 62.0944C128.604 62.2708 128.398 62.359 128.046 62.359C127.193 62.359 126.296 62.0356 125.356 61.3889C124.297 60.6539 123.768 59.8308 123.768 58.9195C123.768 57.9788 124.018 57.0381 124.518 56.0974C125.047 55.1567 125.606 54.6863 126.193 54.6863C126.664 54.6863 127.399 54.995 128.398 55.6123C129.427 56.2003 129.942 56.7882 129.942 57.3762Z" fill="#484B50"/>
<path d="M21.1173 57.5971C20.6481 57.9968 20.1615 58.3618 19.6575 58.6919C18.8408 59.2307 18.2412 59.5 17.8589 59.5C17.3028 59.5 16.7294 59.1264 16.1385 58.3791C15.5651 57.6145 15.2783 56.8151 15.2783 55.981C15.2783 54.2606 15.8431 52.601 16.9727 51.0022C17.8937 49.6989 19.0319 48.5867 20.3874 47.6657C21.5517 46.8663 22.4293 46.4666 23.0202 46.4666C23.2461 46.4666 23.4981 46.6404 23.7761 46.9879C23.9325 47.1965 24.115 47.4919 24.3235 47.8742L25.3401 45.2154C25.8788 43.8425 26.2438 42.9476 26.4349 42.5305C27.0258 41.2967 27.521 40.6798 27.9207 40.6798C28.0598 40.6798 28.2683 40.8188 28.5463 41.0968L28.8852 41.4357C29.0937 41.6269 29.2241 41.7746 29.2762 41.8788C29.3283 41.9657 29.3544 42.1134 29.3544 42.322C29.3544 42.4436 29.2414 42.7391 29.0155 43.2083C28.5116 44.2335 28.0858 45.1633 27.7383 45.9974C27.2864 47.0748 26.8172 48.2565 26.3307 49.5425C25.705 51.2108 25.1663 52.8095 24.7145 54.3388C24.1584 56.2156 23.8369 57.5363 23.75 58.3009C23.6805 59.0482 23.6371 59.4566 23.6197 59.5261C23.5328 59.8563 23.3677 60.0214 23.1244 60.0214C21.6994 60.0214 20.987 59.5174 20.987 58.5095C20.987 58.2662 21.0043 58.075 21.0391 57.936C21.0738 57.7796 21.0999 57.6667 21.1173 57.5971ZM23.8543 48.8387C21.9254 49.5859 20.4222 50.7155 19.3447 52.2274C18.4759 53.4438 18.0414 54.6168 18.0414 55.7464C18.0414 56.094 18.2152 56.2677 18.5627 56.2677C18.9798 56.2677 19.6315 55.8767 20.5178 55.0947C21.265 54.4517 21.8124 53.8783 22.16 53.3743C22.5944 52.0884 22.8638 51.315 22.968 51.0544C23.1592 50.5157 23.4546 49.7771 23.8543 48.8387Z" fill="#484B50"/>
<path d="M30.3301 53.6089C30.1563 53.9912 30.0173 54.3822 29.913 54.7819C29.8087 55.1816 29.7566 55.4857 29.7566 55.6943C29.7566 56.6327 30.1824 57.1019 31.0339 57.1019C31.8506 57.1019 32.6848 56.8933 33.5363 56.4763C34.3878 56.0418 34.9005 55.8246 35.0742 55.8246C35.2133 55.8246 35.2828 55.9289 35.2828 56.1374C35.2828 56.2243 35.2741 56.3633 35.2567 56.5545C35.2393 56.7456 35.2306 56.9107 35.2306 57.0497C35.2306 57.7101 34.6224 58.3009 33.406 58.8223C32.3459 59.2741 31.338 59.5 30.3822 59.5C29.3048 59.5 28.4706 59.1698 27.8798 58.5095C27.3063 57.8317 27.0196 57.015 27.0196 56.0592C27.0196 53.7306 28.0014 51.4975 29.9651 49.36C31.7377 47.4311 33.3017 46.4666 34.6572 46.4666C35.4392 46.4666 36.1343 46.7794 36.7425 47.405C37.3507 48.0306 37.6549 48.7431 37.6549 49.5425C37.6549 50.6894 37.0292 51.8972 35.778 53.1658C34.5268 54.4344 33.3886 55.0687 32.3633 55.0687C31.6334 55.0687 30.9557 54.5821 30.3301 53.6089ZM30.8253 52.5141C31.8854 52.5141 32.8412 52.1926 33.6927 51.5496C34.5442 50.9067 34.97 50.2289 34.97 49.5164C34.97 49.2384 34.9091 49.0472 34.7875 48.943C34.6659 48.8213 34.5181 48.7605 34.3444 48.7605C33.8404 48.7605 33.2496 49.0994 32.5718 49.7771C31.842 50.5243 31.2598 51.4367 30.8253 52.5141Z" fill="#484B50"/>
<path d="M44.6078 49.0472C44.1212 49.1689 43.6694 49.334 43.2523 49.5425C42.6441 49.8553 42.34 50.1594 42.34 50.4548C42.34 50.8198 42.5398 51.1326 42.9395 51.3932C43.148 51.5149 43.3826 51.6365 43.6433 51.7582C44.1125 51.9667 44.4687 52.21 44.712 52.488C45.1117 52.9225 45.3116 53.4786 45.3116 54.1563C45.3116 55.3206 44.6425 56.5023 43.3044 57.7014C41.9837 58.9005 40.7759 59.5 39.6811 59.5C39.0555 59.5 38.3865 59.222 37.674 58.6659C36.9615 58.1098 36.6053 57.6145 36.6053 57.1801C36.6053 57.0063 36.6921 56.7891 36.8659 56.5284C37.0745 56.2677 37.2135 56.094 37.283 56.0071C37.4568 55.7985 37.6132 55.6421 37.7522 55.5379C37.9086 55.4162 38.0302 55.3554 38.1171 55.3554C38.204 55.3554 38.3083 55.4075 38.4299 55.5118C38.4647 55.5465 38.5776 55.6769 38.7688 55.9028C38.9773 56.1113 39.1946 56.2677 39.4205 56.372C39.6464 56.4589 39.8897 56.5023 40.1503 56.5023C40.7238 56.5023 41.2451 56.3025 41.7144 55.9028C42.1836 55.5031 42.4182 55.0773 42.4182 54.6255C42.4182 54.2432 42.2531 53.9304 41.9229 53.6871C41.7665 53.5828 41.4363 53.4264 40.9323 53.2179C40.4458 52.992 40.0895 52.7574 39.8636 52.5141C39.5856 52.2013 39.4465 51.7929 39.4465 51.289C39.4465 50.003 40.0635 48.8821 41.2973 47.9263C42.5311 46.9532 43.904 46.4666 45.4158 46.4666C46.0588 46.4666 46.5802 46.6665 46.9798 47.0661C47.3969 47.4485 47.6055 47.9177 47.6055 48.4738C47.6055 48.8734 47.4751 49.2471 47.2145 49.5946C46.8843 50.0291 46.4672 50.2463 45.9632 50.2463C45.6157 50.2463 45.3203 50.142 45.077 49.9335C44.8511 49.7076 44.6947 49.4122 44.6078 49.0472Z" fill="#484B50"/>
<path d="M48.7992 59.7607C48.7645 59.7607 48.6081 59.6738 48.33 59.5C48.0694 59.3436 47.8087 59.2133 47.548 59.109C47.2874 59.0047 47.0962 58.9092 46.9746 58.8223C46.6965 58.6137 46.5575 58.3705 46.5575 58.0924C46.5575 57.8144 46.6704 57.3365 46.8964 56.6587C47.2613 55.5292 47.8956 53.8957 48.7992 51.7582C49.4596 50.1594 50.0678 48.8995 50.6239 47.9785C51.18 47.0575 51.6058 46.5969 51.9012 46.5969C52.0228 46.5969 52.1358 46.6404 52.2401 46.7273C52.3617 46.8142 52.4747 46.9184 52.5789 47.0401C52.6484 47.1617 52.7701 47.3094 52.9439 47.4832C53.135 47.657 53.2306 47.9003 53.2306 48.2131C53.2306 48.3174 53.1871 48.4564 53.1003 48.6302C53.0307 48.7866 52.8483 49.1602 52.5529 49.751C51.962 50.898 51.5102 51.9059 51.1974 52.7748C50.676 54.1824 50.0504 56.2417 49.3206 58.9526C49.2511 59.1785 49.1989 59.3349 49.1642 59.4218C49.0599 59.6477 48.9383 59.7607 48.7992 59.7607ZM53.4652 40.2106C53.778 40.2106 54.1429 40.4278 54.56 40.8622C54.9771 41.2967 55.1856 41.679 55.1856 42.0092C55.1856 42.3915 54.9684 42.9215 54.5339 43.5993C54.1169 44.277 53.7606 44.6159 53.4652 44.6159C53.1524 44.6159 52.7961 44.3986 52.3965 43.9642C52.0141 43.5124 51.823 43.1301 51.823 42.8173C51.823 42.4176 52.0054 41.8875 52.3704 41.2272C52.7527 40.5494 53.1176 40.2106 53.4652 40.2106Z" fill="#484B50"/>
<path d="M61.1895 47.405C61.8499 47.1617 62.2235 47.0227 62.3104 46.9879C63.0055 46.7447 63.4573 46.623 63.6659 46.623C63.7701 46.623 63.8744 46.6665 63.9787 46.7533C64.1003 46.8402 64.1611 46.9966 64.1611 47.2225L64.109 47.9263C64.109 48.0827 64.1264 48.2652 64.1611 48.4738C64.1959 48.6823 64.2133 48.8126 64.2133 48.8648C64.2133 49.0212 64.0047 49.1862 63.5877 49.36C63.1706 49.5164 62.7622 49.5946 62.3625 49.5946L62.3365 50.4027C62.3365 51.7408 61.8846 53.0354 60.981 54.2867C59.9904 55.6595 58.8609 56.3459 57.5923 56.3459C57.21 56.3459 56.8451 56.2851 56.4975 56.1635C56.1152 56.511 55.924 56.876 55.924 57.2583C55.924 57.6406 56.289 58.0229 57.0188 58.4052C57.3316 58.5616 57.8356 58.7615 58.5307 59.0047C59.2432 59.248 59.7385 59.4826 60.0165 59.7086C60.4336 60.0561 60.6421 60.534 60.6421 61.1422C60.6421 62.4108 59.8167 63.5751 58.1658 64.6352C56.5323 65.6952 54.8814 66.2253 53.2131 66.2253C51.8402 66.2253 50.8062 65.8516 50.1111 65.1044C49.5898 64.5483 49.3291 63.9401 49.3291 63.2797C49.3291 62.5498 49.8765 61.6896 50.9713 60.6991C51.7707 60.0214 52.3616 59.5174 52.7439 59.1872C52.4658 58.9265 52.3268 58.6398 52.3268 58.327C52.3268 57.7362 52.6309 57.1192 53.2391 56.4763C53.6388 56.0592 54.2557 55.5639 55.0899 54.9905C54.7945 54.5908 54.5685 54.165 54.4121 53.7132C54.2731 53.2614 54.2036 52.853 54.2036 52.488C54.2036 51.2195 54.8466 49.7858 56.1326 48.187C57.349 46.6751 58.3222 45.9192 59.052 45.9192C59.3301 45.9192 59.6342 46.0408 59.9644 46.2841C60.3119 46.5274 60.7203 46.9011 61.1895 47.405ZM59.7819 48.187C58.9652 48.691 58.244 49.4556 57.6184 50.4809C57.0101 51.5062 56.706 52.4185 56.706 53.2179C56.706 53.4264 56.7495 53.6089 56.8364 53.7653C56.9233 53.9217 57.097 53.9999 57.3577 53.9999C57.9312 53.9999 58.522 53.5307 59.1302 52.5923C59.7558 51.6539 60.0686 50.646 60.0686 49.5686C60.0686 49.082 59.9731 48.6215 59.7819 48.187ZM55.0899 60.3602C53.0914 61.8373 52.0922 62.7323 52.0922 63.0451C52.0922 63.3753 52.2052 63.5925 52.4311 63.6968C52.5353 63.7489 52.7004 63.775 52.9263 63.775C53.9864 63.775 55.0204 63.5578 56.0283 63.1233C57.0362 62.6889 57.5402 62.2457 57.5402 61.7939C57.5402 61.4985 57.3056 61.2117 56.8364 60.9337C56.3845 60.673 55.8024 60.4819 55.0899 60.3602Z" fill="#484B50"/>
<path d="M68.7391 48.3434C69.3821 47.8047 69.9816 47.405 70.5377 47.1443C71.0938 46.8663 71.5109 46.7273 71.7889 46.7273C72.2408 46.7273 72.6839 47.0835 73.1184 47.796C73.5528 48.5085 73.77 49.221 73.77 49.9335C73.77 50.4548 73.5094 51.315 72.988 52.5141C72.4667 53.7132 72.1191 54.5213 71.9453 54.9383C71.5109 55.9984 71.146 57.1192 70.8505 58.3009C70.5551 59.4653 70.3118 60.0474 70.1207 60.0474C70.0338 60.0474 69.9034 60.004 69.7297 59.9171C69.4169 59.7607 69.0954 59.613 68.7652 59.4739C68.4524 59.3175 68.2612 59.222 68.1917 59.1872C67.9658 59.0308 67.8529 58.8483 67.8529 58.6398C67.8529 58.3444 68.1048 57.4755 68.6088 56.0331C69.0606 54.7472 69.3647 53.9304 69.5211 53.5828C69.9382 52.6097 70.364 51.6626 70.7984 50.7416C70.9896 50.3419 71.0851 50.0899 71.0851 49.9856C71.0851 49.725 70.9809 49.5946 70.7723 49.5946C70.529 49.5946 70.0946 49.7684 69.469 50.116C68.8608 50.4635 68.3568 50.8371 67.9571 51.2368C67.5227 52.2448 67.1404 53.2353 66.8102 54.2085C66.4279 55.338 66.0542 56.4589 65.6893 57.5711C65.2375 58.857 64.8465 59.5 64.5163 59.5C64.3599 59.5 64.1774 59.4305 63.9689 59.2915C63.7604 59.1525 63.5518 58.9874 63.3433 58.7962C62.8567 58.3791 62.596 58.1445 62.5613 58.0924C62.4396 57.936 62.3788 57.7883 62.3788 57.6493C62.3788 57.5276 62.431 57.3452 62.5352 57.1019C62.7959 56.5458 63.0653 55.9723 63.3433 55.3815C63.9863 54.0086 64.525 52.8095 64.9594 51.7842C65.6546 50.1507 66.1933 48.6997 66.5756 47.4311C66.871 46.4405 67.1317 45.9453 67.3576 45.9453C67.5314 45.9453 67.7486 46.0235 68.0093 46.1799L68.4785 46.3884C68.7391 46.4927 68.9129 46.5883 68.9998 46.6751C69.0867 46.7447 69.1301 46.8402 69.1301 46.9619C69.1301 47.0661 69.0693 47.3007 68.9477 47.6657L68.7391 48.3434Z" fill="#484B50"/>
</svg>
