<svg width="24" height="18" viewBox="0 0 24 18" fill="none" xmlns="http://www.w3.org/2000/svg">
<path fill-rule="evenodd" clip-rule="evenodd" d="M4.5 0C2.01471 0 0 2.01471 0 4.5V13.5C0 15.9853 2.01471 18 4.5 18H19.5C21.9853 18 24 15.9853 24 13.5V4.5C24 2.01471 21.9853 0 19.5 0H4.5ZM2.25 13.5V6L10.4277 11.0324C11.3919 11.6258 12.6081 11.6258 13.5723 11.0324L21.75 6V13.5C21.75 14.7426 20.7426 15.75 19.5 15.75H4.5C3.25745 15.75 2.25 14.7426 2.25 13.5ZM19.5 2.25C20.384 2.25 21.149 2.75986 21.5169 3.50153L12.3931 9.11623C12.152 9.26454 11.848 9.26454 11.6069 9.11623L2.48309 3.50157C2.85095 2.75986 3.61597 2.25 4.5 2.25H19.5Z" fill="white"/>
</svg>
