<svg width="58" height="58" viewBox="0 0 58 58" fill="none" xmlns="http://www.w3.org/2000/svg">
<rect width="58" height="58" rx="6" fill="white"/>
<path fill-rule="evenodd" clip-rule="evenodd" d="M7 13.16V19.32H13.16H19.32V13.16V7H13.16H7V13.16ZM22.84 7.88V8.76H23.72H24.6V9.64V10.52H25.48H26.36V11.4V12.28H24.6H22.84V14.04V15.8H21.96H21.08V17.56V19.32H21.96H22.84V20.2V21.08H21.96H21.08V22.84V24.6H18.44H15.8V23.72V22.84H17.56H19.32V21.96V21.08H17.56H15.8V21.96V22.84H14.92H14.04V21.96V21.08H13.16H12.28V23.72V26.36H13.16H14.04V27.24V28.12H11.4H8.76V29V29.88H7.88H7V30.76V31.64H7.88H8.76V32.52V33.4H7.88H7V34.28V35.16H7.88H8.76V34.28V33.4H9.64H10.52V34.28V35.16H11.4H12.28V33.4V31.64H10.52H8.76V30.76V29.88H11.4H14.04V29V28.12H14.92H15.8V29.88V31.64H16.68H17.56V32.52V33.4H15.8H14.04V35.16V36.92H17.56H21.08V37.8V38.68H21.96H22.84V39.56V40.44H21.96H21.08V41.32V42.2H21.96H22.84V43.08V43.96H21.96H21.08V44.84V45.72H21.96H22.84V46.6V47.48H23.72H24.6V49.24V51H25.48H26.36V49.24V47.48H25.48H24.6V46.6V45.72H26.36H28.12V44.84V43.96H26.36H24.6V42.2V40.44H26.36H28.12V41.32V42.2H29H29.88V40.44V38.68H30.76H31.64V40.44V42.2H32.52H33.4V41.32V40.44H34.28H35.16V43.08V45.72H34.28H33.4V44.84V43.96H32.52H31.64V44.84V45.72H32.52H33.4V46.6V47.48H32.52H31.64V48.36V49.24H33.4H35.16V50.12V51H38.68H42.2V50.12V49.24H40.44H38.68V48.36V47.48H37.8H36.92V45.72V43.96H38.68H40.44V45.72V47.48H42.2H43.96V48.36V49.24H44.84H45.72V48.36V47.48H46.6H47.48V45.72V43.96H46.6H45.72V43.08V42.2H47.48H49.24V43.08V43.96H50.12H51V43.08V42.2H50.12H49.24V41.32V40.44H50.12H51V38.68V36.92H50.12H49.24V37.8V38.68H48.36H47.48V39.56V40.44H46.6H45.72V38.68V36.92H46.6H47.48V36.04V35.16H48.36H49.24V34.28V33.4H50.12H51V30.76V28.12H49.24H47.48V29V29.88H46.6H45.72V29V28.12H44.84H43.96V26.36V24.6H43.08H42.2V22.84V21.08H41.32H40.44V21.96V22.84H39.56H38.68V21.96V21.08H36.92H35.16V20.2V19.32H36.04H36.92V16.68V14.04H36.04H35.16V10.52V7H33.4H31.64V7.88V8.76H30.76H29.88V7.88V7H29H28.12V7.88V8.76H27.24H26.36V7.88V7H24.6H22.84V7.88ZM38.68 13.16V19.32H44.84H51V13.16V7H44.84H38.68V13.16ZM17.56 13.16V17.56H13.16H8.76V13.16V8.76H13.16H17.56V13.16ZM29.88 9.64V10.52H30.76H31.64V9.64V8.76H32.52H33.4V10.52V12.28H32.52H31.64V13.16V14.04H32.52H33.4V15.8V17.56H34.28H35.16V18.44V19.32H34.28H33.4V20.2V21.08H34.28H35.16V22.84V24.6H36.04H36.92V25.48V26.36H37.8H38.68V25.48V24.6H39.56H40.44V25.48V26.36H41.32H42.2V27.24V28.12H43.08H43.96V29.88V31.64H44.84H45.72V32.52V33.4H46.6H47.48V31.64V29.88H48.36H49.24V31.64V33.4H48.36H47.48V34.28V35.16H45.72H43.96V33.4V31.64H43.08H42.2V29.88V28.12H41.32H40.44V27.24V26.36H39.56H38.68V27.24V28.12H37.8H36.92V27.24V26.36H35.16H33.4V27.24V28.12H32.52H31.64V29V29.88H34.28H36.92V30.76V31.64H38.68H40.44V32.52V33.4H41.32H42.2V34.28V35.16H39.56H36.92V34.28V33.4H36.04H35.16V34.28V35.16H34.28H33.4V36.04V36.92H32.52H31.64V36.04V35.16H29.88H28.12V36.92V38.68H26.36H24.6V37.8V36.92H25.48H26.36V36.04V35.16H27.24H28.12V32.52V29.88H27.24H26.36V29V28.12H25.48H24.6V30.76V33.4H22.84H21.08V34.28V35.16H19.32H17.56V34.28V33.4H19.32H21.08V32.52V31.64H19.32H17.56V30.76V29.88H18.44H19.32V29V28.12H17.56H15.8V27.24V26.36H17.56H19.32V27.24V28.12H20.2H21.08V27.24V26.36H23.72H26.36V27.24V28.12H27.24H28.12V26.36V24.6H25.48H22.84V22.84V21.08H23.72H24.6V21.96V22.84H25.48H26.36V20.2V17.56H27.24H28.12V16.68V15.8H29H29.88V16.68V17.56H30.76H31.64V15.8V14.04H29H26.36V14.92V15.8H25.48H24.6V14.92V14.04H25.48H26.36V13.16V12.28H28.12H29.88V11.4V10.52H29H28.12V9.64V8.76H29H29.88V9.64ZM49.24 13.16V17.56H44.84H40.44V13.16V8.76H44.84H49.24V13.16ZM10.52 13.16V15.8H13.16H15.8V13.16V10.52H13.16H10.52V13.16ZM42.2 13.16V15.8H44.84H47.48V13.16V10.52H44.84H42.2V13.16ZM24.6 18.44V19.32H23.72H22.84V18.44V17.56H23.72H24.6V18.44ZM28.12 20.2V22.84H30.76H33.4V21.96V21.08H31.64H29.88V19.32V17.56H29H28.12V20.2ZM31.64 18.44V19.32H32.52H33.4V18.44V17.56H32.52H31.64V18.44ZM7 21.96V22.84H7.88H8.76V23.72V24.6H9.64H10.52V23.72V22.84H9.64H8.76V21.96V21.08H7.88H7V21.96ZM49.24 23.72V24.6H48.36H47.48V25.48V26.36H49.24H51V24.6V22.84H50.12H49.24V23.72ZM29.88 26.36V28.12H30.76H31.64V26.36V24.6H30.76H29.88V26.36ZM21.08 29V29.88H21.96H22.84V29V28.12H21.96H21.08V29ZM29.88 31.64V33.4H31.64H33.4V32.52V31.64H32.52H31.64V30.76V29.88H30.76H29.88V31.64ZM42.2 39.56V42.2H39.56H36.92V39.56V36.92H39.56H42.2V39.56ZM7 44.84V51H13.16H19.32V44.84V38.68H13.16H7V44.84ZM38.68 39.56V40.44H39.56H40.44V39.56V38.68H39.56H38.68V39.56ZM17.56 44.84V49.24H13.16H8.76V44.84V40.44H13.16H17.56V44.84ZM10.52 44.84V47.48H13.16H15.8V44.84V42.2H13.16H10.52V44.84ZM45.72 46.6V47.48H44.84H43.96V46.6V45.72H44.84H45.72V46.6ZM49.24 46.6V47.48H50.12H51V46.6V45.72H50.12H49.24V46.6ZM21.08 50.12V51H21.96H22.84V50.12V49.24H21.96H21.08V50.12ZM28.12 50.12V51H29H29.88V50.12V49.24H29H28.12V50.12ZM47.48 50.12V51H49.24H51V50.12V49.24H49.24H47.48V50.12Z" fill="black"/>
</svg>
