<svg width="18" height="18" viewBox="0 0 18 18" fill="none" xmlns="http://www.w3.org/2000/svg">
<g clip-path="url(#clip0_202_9852)">
<rect width="18" height="18" rx="9" fill="white"/>
<g clip-path="url(#clip1_202_9852)">
<path d="M-9 0V18H27V0H-9Z" fill="#012169"/>
<path d="M-9 0L27 18L-9 0ZM27 0L-9 18L27 0Z" fill="black"/>
<path d="M27 0L-9 18M-9 0L27 18L-9 0Z" stroke="white" stroke-width="3.6"/>
<path d="M-9 0L27 18L-9 0ZM27 0L-9 18L27 0Z" fill="black"/>
<path d="M27 0L-9 18M-9 0L27 18L-9 0Z" stroke="#C8102E" stroke-width="2.4"/>
<path d="M9 0V18V0ZM-9 9H27H-9Z" fill="black"/>
<path d="M-9 9H27M9 0V18V0Z" stroke="white" stroke-width="6"/>
<path d="M9 0V18V0ZM-9 9H27H-9Z" fill="black"/>
<path d="M-9 9H27M9 0V18V0Z" stroke="#C8102E" stroke-width="3.6"/>
</g>
</g>
<defs>
<clipPath id="clip0_202_9852">
<rect width="18" height="18" rx="9" fill="white"/>
</clipPath>
<clipPath id="clip1_202_9852">
<rect width="36" height="18" fill="white" transform="translate(-9)"/>
</clipPath>
</defs>
</svg>
