<svg width="62" height="32" viewBox="0 0 62 32" fill="none" xmlns="http://www.w3.org/2000/svg">
<path d="M0 6C0 2.68629 2.68629 0 6 0H10V32H6C2.68629 32 0 29.3137 0 26V6Z" fill="#4444C7"/>
<rect width="37" height="32" transform="translate(10)" fill="#4444C7"/>
<path d="M12.178 24C12.0167 24 11.8847 23.9487 11.782 23.846C11.6793 23.7433 11.628 23.6113 11.628 23.45V9.15C11.628 8.98867 11.6793 8.85667 11.782 8.754C11.8847 8.65133 12.0167 8.6 12.178 8.6H14.664C14.8253 8.6 14.9573 8.65133 15.06 8.754C15.1627 8.85667 15.214 8.98867 15.214 9.15V23.45C15.214 23.6113 15.1627 23.7433 15.06 23.846C14.9573 23.9487 14.8253 24 14.664 24H12.178ZM19.01 24C18.8487 24 18.7167 23.9487 18.614 23.846C18.5114 23.7433 18.46 23.6113 18.46 23.45V9.15C18.46 8.98867 18.5114 8.85667 18.614 8.754C18.7167 8.65133 18.8487 8.6 19.01 8.6H24.84C26.6734 8.6 28.118 9.02533 29.174 9.876C30.23 10.712 30.758 11.922 30.758 13.506C30.758 14.5767 30.5014 15.4713 29.988 16.19C29.4747 16.9087 28.7854 17.444 27.92 17.796L31.022 23.296C31.066 23.384 31.088 23.4647 31.088 23.538C31.088 23.6553 31.044 23.7653 30.956 23.868C30.868 23.956 30.758 24 30.626 24H28.184C27.92 24 27.722 23.934 27.59 23.802C27.458 23.6553 27.3627 23.5233 27.304 23.406L24.62 18.368H21.958V23.45C21.958 23.6113 21.9067 23.7433 21.804 23.846C21.7014 23.9487 21.5694 24 21.408 24H19.01ZM21.958 15.574H24.774C25.5807 15.574 26.1747 15.3907 26.556 15.024C26.952 14.6573 27.15 14.144 27.15 13.484C27.15 12.824 26.9594 12.3033 26.578 11.922C26.1967 11.5407 25.5954 11.35 24.774 11.35H21.958V15.574ZM39.0001 24.22C37.5921 24.22 36.4115 24.0147 35.4581 23.604C34.5195 23.1933 33.8081 22.658 33.3241 21.998C32.8401 21.338 32.5835 20.634 32.5541 19.886C32.5541 19.7687 32.5981 19.666 32.6861 19.578C32.7741 19.4753 32.8841 19.424 33.0161 19.424H35.3701C35.5608 19.424 35.7075 19.468 35.8101 19.556C35.9128 19.6293 36.0081 19.7247 36.0961 19.842C36.1988 20.0913 36.3601 20.3333 36.5801 20.568C36.8148 20.8027 37.1301 21.0007 37.5261 21.162C37.9221 21.3087 38.4135 21.382 39.0001 21.382C39.9535 21.382 40.6648 21.228 41.1341 20.92C41.6181 20.612 41.8601 20.194 41.8601 19.666C41.8601 19.2847 41.7281 18.9767 41.4641 18.742C41.2148 18.5073 40.8115 18.2947 40.2541 18.104C39.7115 17.9133 38.9855 17.708 38.0761 17.488C36.9761 17.2533 36.0375 16.9527 35.2601 16.586C34.4975 16.2047 33.9181 15.7207 33.5221 15.134C33.1408 14.5327 32.9501 13.792 32.9501 12.912C32.9501 12.032 33.1921 11.2547 33.6761 10.58C34.1601 9.89067 34.8421 9.35533 35.7221 8.974C36.6021 8.578 37.6508 8.38 38.8681 8.38C39.8508 8.38 40.7161 8.512 41.4641 8.776C42.2268 9.04 42.8575 9.38467 43.3561 9.81C43.8695 10.2353 44.2581 10.69 44.5221 11.174C44.7861 11.658 44.9255 12.1273 44.9401 12.582C44.9401 12.6993 44.8961 12.8093 44.8081 12.912C44.7201 13 44.6101 13.044 44.4781 13.044H42.0141C41.8675 13.044 41.7355 13.0147 41.6181 12.956C41.5008 12.8973 41.4055 12.7947 41.3321 12.648C41.2441 12.2667 40.9801 11.9367 40.5401 11.658C40.1148 11.3647 39.5575 11.218 38.8681 11.218C38.1495 11.218 37.5775 11.35 37.1521 11.614C36.7415 11.878 36.5361 12.2813 36.5361 12.824C36.5361 13.176 36.6388 13.4767 36.8441 13.726C37.0641 13.9607 37.4235 14.1733 37.9221 14.364C38.4355 14.54 39.1101 14.738 39.9461 14.958C41.2368 15.222 42.2855 15.5373 43.0921 15.904C43.8988 16.2707 44.4928 16.7473 44.8741 17.334C45.2555 17.906 45.4461 18.632 45.4461 19.512C45.4461 20.4947 45.1675 21.338 44.6101 22.042C44.0675 22.746 43.3121 23.2887 42.3441 23.67C41.3908 24.0367 40.2761 24.22 39.0001 24.22Z" fill="white"/>
<path d="M53.3157 4.21035C52.533 1.7055 50.2132 0 47.5889 0H47V32H53.8389C57.8867 32 60.7731 28.0739 59.5657 24.2104L53.3157 4.21035Z" fill="#4444C7"/>
</svg>
