<svg width="345" height="114" viewBox="0 0 345 114" fill="none" xmlns="http://www.w3.org/2000/svg">
<path fill-rule="evenodd" clip-rule="evenodd" d="M109.533 34.8442C102.4 37.3644 96.549 43.9916 96.433 49.6826C96.3954 51.5108 96.6072 52.0122 97.9231 53.2138C98.9338 54.137 99.9642 54.6144 100.945 54.6144C107.713 54.6144 117.307 41.4239 114.993 35.3005C114.393 33.7127 113.052 33.6009 109.533 34.8442ZM111.353 39.099C111.204 42.5837 106.821 49.3505 103.615 51.0439C102.026 51.8836 101.931 51.6365 103.162 49.8687C104.19 48.3946 106.585 43.0381 106.332 42.7799C106.24 42.6864 105.061 43.9071 103.711 45.493C102.361 47.0789 100.954 48.3764 100.584 48.3764C98.9611 48.3764 100.676 45.7823 105.29 41.2559C108.275 38.3284 109.619 37.3183 110.381 37.4291C111.218 37.5505 111.405 37.8725 111.353 39.099ZM81.5956 54.3073C74.0301 56.4115 67.457 63.4374 65.5949 71.4091C63.204 81.6462 68.285 99.4462 76.089 108.17C80.9954 113.655 83.5037 114.488 91.9136 113.42C99.3278 112.478 102.191 112.485 106.766 113.451C112.941 114.756 116.284 113.84 120.935 109.568C124.101 106.659 127.293 101.697 129.348 96.4884L131 92.3027L129.897 91.5772C127.06 89.7101 123.749 85.9413 122.328 82.961C121.041 80.2619 120.825 79.2868 120.829 76.2076C120.835 72.1462 121.767 69.8391 125.546 64.5339C126.748 62.8453 127.62 61.0905 127.62 60.3601C127.62 57.7579 123.853 55.6509 116.877 54.3524C111.715 53.3918 109.089 53.5852 104.006 55.3006C99.3565 56.8697 98.212 56.8491 92.6322 55.0943C87.7521 53.5597 84.992 53.3625 81.5956 54.3073ZM110.226 56.994C108.28 58.6936 109.199 58.946 111.332 57.2977C112.724 56.2214 113.822 55.864 115.32 55.9988C115.658 56.029 115.805 56.2694 115.646 56.5324C115.455 56.8467 115.754 56.8563 116.517 56.5597C118.916 55.6279 123.327 58.1432 123.448 60.5118C123.564 62.7819 123.226 63.6044 120.851 66.8506C119.499 68.698 118.145 70.9437 117.841 71.8405C117.062 74.1419 117.151 80.4879 117.998 82.9394C118.951 85.7014 121.579 89.1285 124.379 91.2653C127.023 93.2816 127.194 94.0964 125.698 97.5513C122.979 103.832 119.408 108.438 115.8 110.319C113.635 111.446 109.123 111.534 105.825 110.511C102.67 109.534 98.0194 109.629 93.8063 110.757C88.0729 112.292 84.8939 111.897 86.8556 109.893C87.2938 109.445 87.2938 109.189 86.8551 108.741C86.4165 108.293 85.9454 108.293 84.7319 108.741C82.4705 109.577 82.0432 109.484 80.3266 107.784C78.4683 105.943 78.4401 105.641 79.9547 103.841C81.2607 102.29 81.1494 101.514 79.8002 102.762C79.3263 103.201 78.4795 103.559 77.9188 103.559C76.5211 103.559 76.5939 102.117 78.0733 100.486C80.1026 98.248 79.4315 96.7375 77.1049 98.3046C76.3459 98.8157 75.4644 99.2355 75.146 99.237C74.5904 99.2403 72.2028 94.9865 72.2028 93.9942C72.2028 93.7302 72.9424 92.7585 73.8465 91.8348C75.3836 90.2643 76.059 88.2038 75.0371 88.2038C74.7877 88.2038 73.8498 88.8622 72.9523 89.6669C71.379 91.0786 71.3039 91.0968 70.823 90.1784C70.0598 88.7221 70.2115 87.9394 71.5932 86.2014C72.8194 84.6587 72.8222 84.6414 71.6805 85.6846C70.2523 86.9888 69.8546 87.0368 69.8546 85.9044C69.8546 85.4317 70.8056 84.091 71.9679 82.9255C75.1329 79.7518 74.7834 77.6438 71.5702 80.5262C67.9718 83.7542 68.1169 80.7139 71.742 76.9274C74.3603 74.1927 76.4164 69.9696 75.13 69.9696C74.9319 69.9696 73.6497 70.9705 72.2817 72.1937C70.7455 73.566 69.6258 74.2465 69.3558 73.9706C68.6823 73.2825 70.0316 68.6706 71.317 67.2676C72.9363 65.4993 82.5847 57.255 83.7954 56.6048C85.4518 55.7152 89.1023 55.9868 92.6322 57.2618C96.4518 58.6413 98.3111 58.7306 101.555 57.6893C102.847 57.2747 105.594 56.6543 107.661 56.3102C109.727 55.9657 111.516 55.6595 111.635 55.6293C111.754 55.5991 111.12 56.2133 110.226 56.994ZM80.1867 57.4028C80.1867 57.8496 72.4277 64.8318 71.6044 65.126C70.9272 65.3678 72.3756 62.9969 74.0245 61.1644C74.7017 60.412 76.3121 59.1725 77.6036 58.4096C80.2463 56.8491 80.1867 56.8721 80.1867 57.4028Z" fill="#484B50"/>
<path d="M165.624 103L172.141 99.5302C174.388 98.4664 176.714 97.3231 178.755 95.9312C182.033 94.2907 184.889 92.5807 187.598 90.6321C193.133 86.6552 196.696 82.8673 198.825 78.7115C200.042 76.3254 201.456 73.1936 201.515 70.1315C201.524 69.7835 201.505 69.4256 201.456 69.0776C192.623 73.4521 183.182 77.8764 173.171 80.5011C168.343 81.7737 162.67 81.6245 156.86 80.0934C146.967 77.4886 132.649 42.0749 132.109 36.6167C131.5 30.5123 133.453 25.7301 137.762 22.7972C142.836 19.3374 148.479 16.6729 153.818 14.3067C171.002 6.69102 190.542 2.20714 213.566 0.596525C219.347 0.1889 224.166 0 228.739 0C246.081 0 259.359 2.84344 270.538 8.95782C273.708 10.6977 277.663 12.8551 278.811 17.1103C279.949 21.3357 279.979 25.8097 279.998 30.1444V30.7807C280.067 41.1801 277.869 50.8339 273.649 58.6782C273.413 59.1156 273.168 59.5929 272.922 60.0701C271.401 63.003 269.517 66.6517 266.661 68.3518C263.923 69.9923 260.91 70.0519 258.015 70.1116L257.23 70.1315C249.221 70.3204 241.134 69.6741 233.322 69.0378C231.467 68.8887 229.603 68.7396 227.748 68.6004C226.59 71.235 224.862 73.7404 222.075 76.8623C217.404 82.0918 211.927 86.3569 205.342 89.8963C204.243 90.4829 203.124 91.0695 202.005 91.6362L199.993 92.5012C194.851 94.7083 189.531 96.985 184.153 98.8442C180.738 100.027 177.077 100.902 172.298 101.668C172.131 101.698 171.974 101.727 171.807 101.767L171.424 101.847L165.624 103ZM184.369 94.8574C182.838 95.7821 181.248 96.647 179.57 97.4821C178.805 97.9991 178 98.4962 177.166 98.9536C179.531 98.4366 181.621 97.85 183.613 97.1541C184.193 96.9552 184.762 96.7464 185.341 96.5376L185.184 96.5476C184.713 96.5476 184.32 96.2096 184.212 95.7224C184.143 95.4241 184.212 95.1159 184.369 94.8574ZM204.135 61.9491H204.645L204.969 62.4959C207.295 67.3576 207.452 72.6965 205.421 77.9261C202.094 86.5359 193.742 93.1275 186.872 95.9908C191.092 94.4001 195.283 92.6105 199.355 90.8607L201.318 90.0156C202.378 89.4688 203.487 88.8922 204.577 88.3155C210.985 84.8656 216.304 80.7198 220.848 75.6493C223.695 72.4679 225.373 69.9724 226.443 67.3278L226.678 66.7512L227.267 66.8009C229.328 66.95 231.379 67.119 233.44 67.288C241.213 67.9144 249.251 68.5706 257.18 68.3717L257.975 68.3518C260.802 68.2922 263.462 68.2425 265.837 66.8208C268.28 65.3593 269.968 62.1082 271.45 59.2349C271.705 58.7478 271.951 58.2706 272.196 57.8232C276.269 50.2473 278.389 40.9017 278.33 30.8105V30.1643C278.301 25.9488 278.281 21.5942 277.201 17.6074C276.249 14.0879 272.805 12.2089 269.772 10.5486C258.849 4.57336 245.806 1.78958 228.739 1.78958C224.205 1.78958 219.416 1.97848 213.674 2.37616C190.847 3.97683 171.483 8.42095 154.465 15.967C149.195 18.3034 143.631 20.9281 138.665 24.3183C134.876 26.9033 133.228 30.9895 133.777 36.4576C134.405 42.8007 148.597 76.1166 157.262 78.3933C162.807 79.8449 168.195 79.994 172.769 78.801C183.005 76.1166 192.672 71.5035 201.711 67.0196L202.614 66.5722L202.879 67.5863C203.114 68.4612 203.212 69.3162 203.203 70.1911C203.134 73.6311 201.622 77.0213 200.307 79.5864C198.05 84.0007 194.311 87.9775 188.55 92.1333C187.657 92.7795 186.744 93.3959 185.812 93.9925C191.553 91.0894 197.118 87.5401 199.964 81.8134C203.664 74.3867 204.704 68.3618 203.154 63.3709L203.016 62.9334L203.301 62.4164C203.497 62.1181 203.811 61.9491 204.135 61.9491ZM205.048 72.6667C204.635 74.7347 203.948 76.9219 202.987 79.2384C203.311 78.5922 203.605 77.9261 203.87 77.25C204.469 75.709 204.861 74.1779 205.048 72.6667ZM163.102 75.6096C157.802 75.2019 154.544 73.0743 151.737 68.2723C148.194 62.1977 145.25 56.5506 142.747 50.993C142.315 50.0385 141.844 49.0542 141.364 48.0402C139.332 43.7849 137.016 38.963 136.702 34.2903C136.417 30.0549 137.693 26.9431 141.108 23.5627L141.354 23.3241L141.815 23.2645C142.198 23.2645 142.561 23.513 142.728 23.8908C142.904 24.2885 142.845 24.7458 142.58 25.0839C138.439 30.3731 140.166 35.4634 142.855 41.5579L143.788 43.6855C145.152 46.7875 146.555 49.9987 148.086 53.0808C150.049 57.0377 152.287 61.2234 154.917 65.8862C155.535 66.9798 157.184 69.8929 158.558 70.8771C159.824 71.7819 161.208 72.1597 162.67 72.5573L163.622 72.8258C164.211 72.9948 164.564 73.5714 164.486 74.2177C164.427 74.8937 163.858 75.6096 163.102 75.6096ZM138.419 31.8644C138.341 32.5902 138.331 33.3458 138.39 34.1709C138.674 38.4858 140.902 43.1387 142.865 47.2448C143.356 48.2688 143.827 49.273 144.269 50.2374C146.751 55.7254 149.656 61.3228 153.17 67.3477C154.328 69.3361 155.555 70.7976 156.988 71.8316C155.712 70.6087 154.465 68.5507 153.484 66.8208C150.824 62.138 148.577 57.9126 146.604 53.9259C145.063 50.814 143.64 47.5828 142.276 44.4511L141.344 42.3334C139.744 38.6847 138.419 35.2546 138.419 31.8644ZM169.432 74.6651L169.177 72.9152C176.655 70.897 183.888 67.974 190.886 65.1505C193.801 63.9773 196.725 62.7942 199.689 61.6608L200.396 63.2615C192.368 68.2325 184.016 71.8514 175.576 73.9989C173.613 74.327 171.621 74.5358 169.432 74.6651Z" fill="#484B50"/>
<path d="M189.608 25.5573C189.698 26.0721 190.151 26.6087 190.969 27.167C191.635 27.619 192.311 28.0694 192.996 28.5182C193.394 28.8466 193.715 29.2169 193.958 29.6293C194.2 30.0417 194.378 30.5697 194.49 31.2133C194.789 32.9234 194.262 34.5693 192.908 36.1512C191.649 37.6219 190.202 38.5002 188.565 38.7862C187.646 38.9468 186.743 38.8772 185.857 38.5772C184.989 38.2741 184.512 37.8743 184.425 37.3778C184.37 37.0652 184.512 36.5194 184.849 35.7403C185.205 34.958 185.54 34.5395 185.852 34.4849C186.055 34.4496 186.298 34.5397 186.582 34.7554C186.866 34.9711 187.22 35.3166 187.644 35.792C188.691 35.4953 189.534 34.9501 190.172 34.1564C190.811 33.3627 191.07 32.6257 190.951 31.9453C190.861 31.4305 190.566 30.9326 190.065 30.4516C189.793 30.196 189.305 29.8453 188.602 29.3997C187.914 28.9325 187.394 28.5023 187.041 28.1092C186.545 27.5515 186.235 26.9141 186.11 26.1969C185.814 24.5052 186.572 22.7715 188.384 20.9958C190.117 19.3096 192.004 18.2883 194.045 17.9316C194.983 17.7677 195.77 17.8766 196.405 18.2583C196.954 18.5793 197.273 18.9973 197.363 19.5121C197.507 20.3396 197.288 21.2497 196.703 22.2425C196.043 23.3432 195.207 23.982 194.195 24.1587C193.883 24.2133 193.588 24.208 193.311 24.1426C193.05 24.0557 192.901 23.9111 192.866 23.7088C192.831 23.5065 192.846 23.267 192.911 22.9903C192.992 22.692 193.089 22.4381 193.204 22.2285C193.57 21.5014 193.75 21.1194 193.743 21.0826C193.715 21.0307 193.69 20.9971 193.669 20.9819C193.561 20.9061 193.442 20.8794 193.314 20.9019C192.578 21.0304 191.76 21.6092 190.86 22.6382C189.88 23.7568 189.463 24.7298 189.608 25.5573Z" fill="#484B50"/>
<path d="M201.962 19.8739C202.236 20.0344 202.386 20.1882 202.412 20.3353C202.473 20.6847 202.343 21.9486 202.023 24.1269C201.752 25.9366 201.48 27.5284 201.209 28.9023C200.787 31.1551 200.365 33.3987 199.94 35.6331C199.759 36.4417 199.549 36.8668 199.31 36.9086C199.2 36.9279 198.967 36.8929 198.61 36.8036C198.25 36.6959 197.907 36.6326 197.582 36.6137C197.253 36.5764 197.06 36.5534 197.001 36.5446C196.74 36.4577 196.591 36.3131 196.556 36.1108C196.527 35.9453 196.516 35.7766 196.524 35.6047C196.547 35.4112 196.619 35.1144 196.738 34.7146C197.153 33.183 197.653 30.8406 198.239 27.6873C198.822 24.5157 199.162 22.3433 199.261 21.1702C198.979 21.2952 198.715 21.2466 198.468 21.0245C198.152 20.7385 197.953 20.3565 197.869 19.8784C197.686 18.8303 198.153 18.0855 199.27 17.644C199.34 17.6128 200.112 17.3643 201.584 16.8986C202.141 16.7254 202.682 16.5646 203.205 16.4163C203.729 16.268 204.092 16.1761 204.294 16.1408C205.085 16.0026 205.722 16.0713 206.206 16.3467C206.69 16.6222 206.987 17.0725 207.096 17.6977C207.144 17.9736 207.084 18.1735 206.916 18.2976C206.749 18.4216 206.536 18.5062 206.279 18.5512C205.488 18.6893 204.806 18.8558 204.234 19.0505C203.658 19.2269 202.901 19.5014 201.962 19.8739Z" fill="#484B50"/>
<path d="M214.85 16.1155C214.962 16.001 215.162 15.8429 215.449 15.6412C215.751 15.4179 215.939 15.2998 216.012 15.2869C216.251 15.2452 216.595 15.5831 217.042 16.3008C217.624 17.2415 218.039 18.4289 218.29 19.8632C218.913 23.4305 218.375 26.8028 216.675 29.9801C215.148 32.8431 213.419 34.4433 211.488 34.7806C210.477 34.9574 209.531 34.6962 208.651 33.9973C207.663 33.2225 207.036 32.072 206.769 30.5458C206.393 28.3944 206.539 26.0287 207.206 23.4486C207.772 21.2653 208.626 19.2684 209.769 17.458C210.836 15.7557 211.774 14.8338 212.583 14.6924C212.877 14.641 213.273 14.7898 213.769 15.1388C214.115 15.3816 214.475 15.7072 214.85 16.1155ZM215.148 20.0996C215.01 19.3089 214.829 18.7625 214.606 18.4605C214.379 18.14 214.165 17.9974 213.962 18.0328C213.503 18.1131 212.897 18.7685 212.146 19.9988C211.31 21.3956 210.677 22.9273 210.248 24.594C209.721 26.6758 209.617 28.6269 209.935 30.4473C210.025 30.9622 210.171 31.363 210.373 31.6499C210.574 31.9368 210.786 32.061 211.006 32.0224C211.889 31.8682 212.876 30.5209 213.967 27.9805C215.175 25.1354 215.569 22.5084 215.148 20.0996Z" fill="#484B50"/>
<path d="M224.091 23.9091C223.91 24.7176 223.739 25.5813 223.577 26.5002C223.431 27.3974 223.313 28.2423 223.224 29.0348C223.132 29.8088 223.043 30.6013 222.958 31.4122C222.781 32.3526 222.463 32.863 222.003 32.9433C221.874 32.9658 221.702 32.958 221.487 32.9198C221.075 32.8401 220.813 32.8008 220.699 32.8017C220.238 32.7684 219.957 32.7323 219.856 32.6932C219.536 32.5975 219.345 32.375 219.284 32.0256C219.239 31.7681 219.259 31.3951 219.345 30.9065C219.448 30.4147 219.76 29.0527 220.279 26.8206C220.549 25.6554 220.829 24.4886 221.117 23.3202C221.453 21.8782 221.891 19.8877 222.433 17.3485C222.113 17.2528 221.847 16.9772 221.635 16.5216C221.419 16.0476 221.276 15.6084 221.205 15.2038C221.099 14.597 221.647 13.9897 222.848 13.3818C223.823 12.8893 224.817 12.5547 225.828 12.378C227.63 12.0631 229.127 12.3321 230.318 13.1851C231.272 13.8712 231.835 14.7108 232.009 15.7037C232.176 16.6599 231.833 17.9515 230.98 19.5786C230.3 20.8912 229.384 22.2073 228.231 23.5267C227.176 24.7534 226.427 25.4052 225.986 25.4824C225.71 25.5305 225.416 25.4208 225.104 25.1532C224.789 24.8672 224.451 24.4525 224.091 23.9091ZM224.351 22.4708C225.586 21.8381 226.731 20.8517 227.785 19.5116C228.84 18.1714 229.307 17.1611 229.188 16.4808C229.115 16.0578 228.892 15.8126 228.52 15.7449C228.148 15.6772 227.714 15.6868 227.217 15.7735L226.804 15.8458C226.16 15.9583 225.743 16.1733 225.552 16.4909C225.422 16.7221 225.218 17.5062 224.94 18.8434C224.68 20.1773 224.484 21.3864 224.351 22.4708Z" fill="#484B50"/>
<path d="M172.162 58.6977C172.292 58.6749 172.373 58.713 172.406 58.8119C172.45 58.8938 172.488 59.0289 172.521 59.2173C172.618 59.7679 172.621 60.1706 172.531 60.4252C172.438 60.6654 172.221 60.9198 171.88 61.1885C171.315 61.6307 170.734 61.9787 170.136 62.2324C169.705 62.4124 169.257 62.5429 168.793 62.6239C167.938 62.7733 167.095 62.5622 166.264 61.9907C165.444 61.4022 164.952 60.637 164.787 59.6951C164.354 57.2172 164.687 54.5905 165.785 51.8152C167.018 48.7026 168.75 46.9514 170.982 46.5614C171.75 46.4272 172.333 46.4747 172.732 46.7037C173.13 46.9328 173.389 47.3878 173.508 48.0689C173.624 48.7355 173.629 49.3618 173.522 49.9479C173.379 50.7496 173.037 51.2275 172.496 51.3817L172.138 51.5114C171.945 51.6048 171.813 51.6579 171.74 51.6705C171.523 51.7085 171.349 51.6942 171.217 51.6275C171.098 51.5438 171.027 51.4367 171.005 51.3063C170.982 51.1759 171.012 50.9241 171.097 50.551C171.193 50.1609 171.249 49.8823 171.264 49.7153C171.28 49.5483 171.271 49.3706 171.238 49.1823C171.18 48.849 171.035 48.7026 170.803 48.7431C169.948 48.8925 169.109 50.1143 168.285 52.4087C167.421 54.8146 167.16 56.9956 167.502 58.9519C167.636 59.7199 167.888 60.221 168.258 60.4551C168.459 60.5841 168.705 60.6233 168.995 60.5727C169.299 60.5195 169.628 60.3948 169.982 60.1985C170.445 59.9385 171.041 59.5058 171.772 58.9003C171.887 58.7905 172.017 58.723 172.162 58.6977Z" fill="#484B50"/>
<path d="M180.652 46.3054C180.741 46.2152 180.898 46.0906 181.124 45.9316C181.362 45.7556 181.51 45.6626 181.568 45.6524C181.756 45.6195 182.027 45.8859 182.38 46.4514C182.838 47.1927 183.166 48.1285 183.363 49.2588C183.854 52.07 183.43 54.7276 182.091 57.2316C180.887 59.4877 179.524 60.7488 178.003 61.0146C177.206 61.1539 176.461 60.9481 175.767 60.3973C174.988 59.7867 174.494 58.8801 174.284 57.6773C173.987 55.9819 174.102 54.1176 174.628 52.0844C175.074 50.3637 175.747 48.7901 176.648 47.3634C177.489 46.0218 178.228 45.2953 178.865 45.1839C179.097 45.1434 179.409 45.2607 179.8 45.5357C180.073 45.7271 180.357 45.9836 180.652 46.3054ZM180.887 49.4451C180.778 48.822 180.635 48.3914 180.459 48.1534C180.281 47.9008 180.112 47.7885 179.953 47.8163C179.59 47.8796 179.113 48.3961 178.521 49.3657C177.862 50.4664 177.364 51.6735 177.026 52.987C176.61 54.6275 176.528 56.1651 176.779 57.5997C176.85 58.0055 176.965 58.3214 177.124 58.5475C177.283 58.7735 177.449 58.8714 177.623 58.841C178.319 58.7195 179.096 57.6577 179.956 55.6557C180.908 53.4136 181.218 51.3434 180.887 49.4451Z" fill="#484B50"/>
<path d="M187.934 52.4472C187.792 53.0844 187.657 53.765 187.53 54.4891C187.414 55.1962 187.322 55.862 187.251 56.4865C187.179 57.0966 187.109 57.7211 187.041 58.3601C186.902 59.1012 186.651 59.5034 186.289 59.5667C186.187 59.5845 186.052 59.5783 185.882 59.5482C185.558 59.4854 185.351 59.4544 185.261 59.4551C184.898 59.4289 184.677 59.4004 184.597 59.3696C184.345 59.2942 184.195 59.1188 184.147 58.8435C184.111 58.6406 184.127 58.3467 184.194 57.9616C184.276 57.574 184.521 56.5007 184.931 54.7417C185.143 53.8234 185.364 52.9039 185.591 51.9831C185.855 50.8468 186.201 49.2781 186.628 47.2771C186.376 47.2017 186.166 46.9845 185.999 46.6254C185.829 46.2519 185.716 45.9057 185.661 45.5869C185.577 45.1087 186.009 44.6301 186.955 44.1511C187.724 43.763 188.506 43.4993 189.303 43.36C190.724 43.1118 191.903 43.3239 192.842 43.9961C193.593 44.5368 194.037 45.1984 194.174 45.9809C194.306 46.7344 194.036 47.7523 193.364 49.0345C192.828 50.069 192.105 51.1061 191.197 52.1459C190.365 53.1126 189.776 53.6263 189.428 53.687C189.211 53.725 188.979 53.6386 188.733 53.4277C188.485 53.2023 188.218 52.8755 187.934 52.4472ZM188.14 51.3138C189.113 50.8152 190.015 50.0378 190.846 48.9817C191.677 47.9256 192.045 47.1294 191.952 46.5933C191.893 46.26 191.718 46.0667 191.425 46.0133C191.132 45.96 190.789 45.9675 190.398 46.0359L190.072 46.0929C189.565 46.1815 189.236 46.3509 189.086 46.6012C188.983 46.7834 188.822 47.4014 188.603 48.4551C188.399 49.5063 188.244 50.4592 188.14 51.3138Z" fill="#484B50"/>
<path d="M197.369 51.829C197.07 51.3138 196.798 50.6968 196.553 49.9781C196.308 49.2593 196.079 48.2913 195.866 47.074C195.823 46.8277 195.773 46.5826 195.715 46.3388C195.67 46.078 195.623 45.8099 195.575 45.5345C195.413 44.6071 195.336 43.8665 195.343 43.3126C195.349 42.7442 195.518 42.4309 195.851 42.3727C195.967 42.3524 196.079 42.3552 196.188 42.3809C196.309 42.3896 196.434 42.4201 196.563 42.4723C196.691 42.5245 196.826 42.5682 196.967 42.6033C197.105 42.624 197.258 42.6494 197.428 42.6795C197.612 42.7071 197.735 42.7303 197.798 42.7492C197.988 42.8057 198.104 42.9572 198.147 43.2035C198.105 43.7335 198.088 44.3189 198.095 44.9597C198.117 45.598 198.208 46.3737 198.367 47.2866C198.413 47.5474 198.476 47.865 198.556 48.2392C198.636 48.6134 198.728 49.0081 198.83 49.4233C199.262 48.646 199.692 47.772 200.119 46.8012C200.642 45.6048 201.189 44.2474 201.76 42.729C201.878 42.3798 202.009 42.0208 202.154 41.6521C202.311 41.2663 202.49 41.0557 202.693 41.0203C202.795 41.0026 202.941 41.074 203.134 41.2345C203.414 41.4693 203.63 41.6405 203.784 41.7482C203.949 41.8388 204.074 41.914 204.159 41.9738C204.383 42.1437 204.506 42.2939 204.529 42.4243C204.552 42.5547 204.269 43.2462 203.682 44.4987C203.14 45.6687 202.562 46.8522 201.95 48.0493C201.338 49.2464 200.928 50.0199 200.72 50.3698C200.305 51.0696 200.02 51.6196 199.866 52.0198C199.622 52.6747 199.411 53.645 199.233 54.9306C199.216 55.0081 199.139 55.5069 199.001 56.427C198.927 56.8581 198.872 57.2261 198.836 57.5311C198.817 57.8481 198.766 58.0734 198.685 58.2071C198.606 58.3552 198.502 58.4407 198.372 58.4635C198.299 58.4761 198.208 58.4696 198.099 58.4438C197.99 58.4181 197.897 58.397 197.819 58.3807C197.742 58.3644 197.472 58.3593 197.01 58.3653C196.566 58.3833 196.305 58.1749 196.229 57.7402C196.196 57.5518 196.219 57.2566 196.298 56.8545C196.631 55.4226 196.987 53.7474 197.369 51.829Z" fill="#484B50"/>
<path d="M206.095 56.5539C205.921 56.5843 205.745 56.5627 205.568 56.4891C205.503 56.4558 205.355 56.3771 205.124 56.2532C204.905 56.1122 204.717 56.0181 204.559 55.971C204.416 55.9213 204.319 55.8786 204.268 55.8427C204.035 55.7043 203.896 55.5046 203.85 55.2438C203.812 55.0264 203.944 54.1596 204.247 52.6432C204.428 51.7155 204.747 50.2487 205.203 48.2426C205.523 46.8277 205.771 45.7689 205.947 45.0662C206.443 42.9486 206.815 41.5768 207.064 40.9509C207.261 40.4535 207.483 40.1834 207.729 40.1403C207.889 40.1125 208.021 40.1416 208.125 40.2279C208.403 40.4482 208.591 40.587 208.691 40.6443C208.941 40.7947 209.11 40.907 209.198 40.9813C209.376 41.1444 209.482 41.3273 209.518 41.5302C209.535 41.6316 209.518 41.7914 209.467 42.0094C209.37 42.3101 209.289 42.5707 209.223 42.7913C208.74 44.4735 208.275 46.5111 207.827 48.904C207.407 51.113 207.084 53.1555 206.859 55.0315C206.775 55.6586 206.68 56.056 206.575 56.2236C206.487 56.4033 206.327 56.5134 206.095 56.5539Z" fill="#484B50"/>
<path d="M213.491 45.7415C213.089 47.7979 212.81 49.4519 212.656 50.7035C212.562 51.4515 212.463 52.6337 212.357 54.2501C212.328 54.5091 212.303 54.6701 212.285 54.7331C212.216 54.9392 212.088 55.0587 211.899 55.0917C211.696 55.1271 211.316 54.9995 210.757 54.7088C210.213 54.4156 209.922 54.1603 209.884 53.943C209.864 53.827 209.876 53.5561 209.921 53.1301C209.986 52.4766 210.161 51.2515 210.444 49.4548C210.681 47.9051 210.856 46.8589 210.971 46.3163C211.122 45.5581 211.47 44.0862 212.013 41.9005L211.731 41.0538L211.436 40.0077C211.376 39.6599 211.563 39.4481 211.997 39.3721C212.78 39.2354 213.326 39.2444 213.637 39.3992C213.851 39.5111 214.039 39.7769 214.202 40.1964C214.587 41.2043 214.93 42.1376 215.229 42.9962C215.526 43.8404 215.841 44.8307 216.174 45.9671L216.904 48.4827C216.999 47.3162 217.118 46.1605 217.262 45.0154C217.482 43.1998 217.71 41.7264 217.945 40.5952C218.244 39.1393 218.53 38.3874 218.806 38.3392C218.951 38.3139 219.186 38.4669 219.513 38.798C219.676 38.9636 219.843 39.1062 220.013 39.2258C220.371 39.4769 220.561 39.6677 220.584 39.7981C220.604 39.9141 220.591 40.0956 220.544 40.3426C220.448 40.7327 220.36 41.0841 220.281 41.3967C219.873 43.0807 219.486 44.9702 219.121 47.065C218.667 49.6829 218.412 51.8107 218.355 53.4485C218.333 53.8404 218.315 54.0752 218.298 54.1527C218.256 54.3392 218.17 54.4439 218.04 54.4667C217.909 54.4895 217.734 54.4679 217.513 54.4019C217.293 54.3359 217.022 54.2413 216.702 54.118C216.382 53.9948 216.173 53.867 216.075 53.7348C215.977 53.6026 215.879 53.2539 215.78 52.6887C215.697 52.2105 215.5 51.4684 215.19 50.4623C214.778 49.1306 214.211 47.5569 213.491 45.7415Z" fill="#484B50"/>
<path d="M226.688 47.5795L226.585 46.9926L225.901 47.1794C225.756 47.2047 225.623 46.8696 225.502 46.174C225.436 45.7972 225.448 45.5263 225.539 45.3611C225.708 45.0478 226.083 44.803 226.665 44.6267C227.246 44.4505 227.723 44.3149 228.095 44.2201C228.934 43.9838 229.383 43.8605 229.441 43.8504C229.803 43.7871 230.039 43.8506 230.146 44.0408C230.254 44.231 230.372 44.6884 230.498 45.4129C230.551 45.7172 230.502 45.9498 230.351 46.1106C230.198 46.2569 229.788 46.3883 229.121 46.5048L229.246 47.2221C229.396 48.077 228.94 49.187 227.879 50.5521C226.831 51.9002 225.85 52.6539 224.937 52.8135C224.097 52.9603 223.292 52.7574 222.523 52.2048C221.67 51.5924 221.14 50.6993 220.935 49.5255C220.768 48.5691 220.792 47.4226 221.006 46.0859C221.265 44.4877 221.745 43.0075 222.448 41.6452C223.148 40.2684 224.001 39.1263 225.008 38.2187C226.014 37.3112 226.959 36.7802 227.843 36.6257C228.48 36.5143 229.066 36.6209 229.601 36.9457C230.136 37.2704 230.464 37.7805 230.585 38.4761C230.714 39.2151 230.624 39.8954 230.315 40.517C230.02 41.136 229.626 41.4885 229.133 41.5746C228.872 41.6202 228.636 41.5942 228.425 41.4967C228.211 41.3848 228.081 41.1911 228.032 40.9158C228 40.7274 227.985 40.5582 227.989 40.4082C228.007 40.2557 228.042 40.033 228.096 39.7399C228.161 39.4298 228.185 39.2241 228.167 39.1226C228.124 38.8763 228.023 38.767 227.863 38.7949C226.965 38.9519 225.98 40.1543 224.91 42.4022C223.742 44.8613 223.332 47.0907 223.682 49.0904C223.758 49.5252 223.861 49.8581 223.991 50.0892C224.135 50.3179 224.374 50.4031 224.707 50.3448C225.229 50.2537 225.728 49.7334 226.204 48.7841C226.359 48.4733 226.52 48.0718 226.688 47.5795Z" fill="#484B50"/>
<path d="M250.494 37.9766C249.74 39.049 249.05 40.3568 248.424 41.8998C247.864 43.3117 247.433 44.7311 247.13 46.158C246.938 47.0277 246.791 47.5984 246.69 47.8701C246.585 48.1273 246.46 48.2685 246.316 48.2938C246.142 48.3242 245.876 48.2138 245.519 47.9627C245.229 47.7594 245.012 47.6257 244.866 47.5615C244.732 47.4803 244.599 47.3992 244.465 47.318C244.346 47.2343 244.276 47.1345 244.256 47.0185C244.203 45.8629 244.119 44.5709 244.004 43.1425C243.886 41.6996 243.724 40.384 243.516 39.1958C243.043 40.5925 242.636 41.9779 242.294 43.3518C241.949 44.7113 241.658 46.3823 241.422 48.3649C241.295 49.4324 241.072 49.994 240.754 50.0497C240.594 50.0776 240.366 50.0128 240.07 49.8556C239.873 49.7555 239.685 49.6615 239.506 49.5734C239.323 49.4708 239.19 49.3897 239.105 49.3299C238.849 49.1505 238.695 48.9086 238.642 48.6043C238.551 48.0826 238.863 46.6243 239.58 44.2292C240.334 41.7081 241.139 39.5216 241.995 37.6696L242.905 35.6962C242.796 35.4165 242.72 35.1535 242.677 34.9072C242.614 34.5449 242.643 34.2859 242.765 34.1302C242.84 34.0425 242.942 33.9873 243.072 33.9645C243.159 33.9493 243.256 33.9473 243.363 33.9586C243.682 33.9924 243.917 34.0111 244.067 34.0147C244.546 34.0207 244.842 34.051 244.956 34.1057C245.185 34.2152 245.338 34.4945 245.416 34.9437C245.51 35.4799 245.598 36.0693 245.681 36.712C245.763 37.3546 245.865 38.3672 245.987 39.7496L246.225 42.2617C246.788 40.4458 247.459 38.7682 248.235 37.2288C248.875 35.9372 249.535 34.8437 250.215 33.9484C250.797 33.1748 251.233 32.7626 251.522 32.712C251.624 32.6942 251.716 32.708 251.798 32.7533C251.896 32.7961 252.07 32.9374 252.321 33.1773L252.821 33.6051C253.22 33.9236 253.439 34.1916 253.477 34.4089C253.502 34.5538 253.462 34.8371 253.356 35.2587C253.164 36.039 253.02 36.6689 252.925 37.1485C252.509 39.297 252.25 41.3208 252.149 43.2201C252.086 44.4854 252.093 45.8506 252.17 47.3156C252.192 47.6105 252.212 47.8981 252.231 48.1785C252.23 48.5969 252.12 48.8251 251.903 48.8631C251.787 48.8833 251.673 48.8734 251.562 48.8331C251.467 48.8048 251.32 48.7334 251.121 48.6189L250.466 48.3302C250.165 48.2334 249.97 48.1406 249.88 48.0518C249.789 47.9631 249.717 47.7593 249.661 47.4405C249.511 46.5855 249.568 44.9853 249.83 42.6397C250.001 41.0567 250.223 39.5023 250.494 37.9766Z" fill="#484B50"/>
<path d="M257.744 38.3673C257.956 38.3003 258.262 38.2169 258.663 38.117C259.078 38.0146 259.416 37.9406 259.677 37.895C260.126 37.8165 260.431 37.8081 260.591 37.8697C260.766 37.9288 260.867 38.0381 260.895 38.1975L260.875 38.4697L260.879 39.0066C260.914 39.3739 260.844 39.6175 260.671 39.7374C260.495 39.8427 259.937 39.9777 258.995 40.1423L257.372 40.4706C257.207 40.9774 257.034 41.6571 256.855 42.5098C256.614 43.6121 256.526 44.3444 256.589 44.7067C256.614 44.8516 256.667 44.9394 256.747 44.9703C256.827 45.0011 256.954 45.0013 257.128 44.9709C258.113 44.7987 258.812 44.6094 259.224 44.403C260.2 43.919 260.767 43.663 260.927 43.6351C261.129 43.5997 261.257 43.7341 261.311 44.0384C261.414 44.6325 261.431 45.0254 261.36 45.217C261.303 45.4061 261.167 45.5644 260.95 45.6918C260.464 45.9859 259.758 46.3034 258.832 46.6444C257.918 46.9684 257.134 47.1874 256.482 47.3013C255.888 47.4051 255.393 47.3497 254.997 47.1352C254.519 46.8753 254.228 46.4483 254.124 45.8542C253.997 45.1297 254.119 43.8167 254.488 41.9153C254.812 40.261 255.183 38.8372 255.601 37.6441L256.453 35.2104C256.154 35.2926 255.936 35.2036 255.801 34.9435C255.666 34.6833 255.549 34.2707 255.451 33.7056C255.37 33.2419 256.048 32.7649 257.485 32.2748C258.417 31.9628 259.476 31.7029 260.664 31.4953C261.114 31.4168 261.454 31.4395 261.684 31.5635C261.913 31.673 262.206 32.025 262.563 32.6195C262.605 32.6869 262.663 32.8037 262.737 32.97C262.822 33.1193 262.87 33.2229 262.88 33.2809C262.911 33.4548 262.803 33.5633 262.557 33.6063L261.984 33.6616C261.602 33.6984 261.323 33.7248 261.146 33.7407C260.97 33.7566 260.809 33.7772 260.664 33.8025C259.882 33.9393 259.408 34.0893 259.242 34.2526C259.074 34.4015 258.861 34.8493 258.603 35.5963C258.466 36.0085 258.294 36.5612 258.087 37.2545C257.974 37.6327 257.859 38.0036 257.744 38.3673Z" fill="#484B50"/>
<path d="M268.625 31.493C268.638 31.5655 268.634 31.6707 268.613 31.8088C268.593 31.9468 268.539 32.1503 268.451 32.4195C268.014 33.7651 267.604 35.136 267.221 36.532C266.852 37.9255 266.561 39.2084 266.348 40.3806C266.304 40.6421 266.267 40.9024 266.238 41.1614C266.153 41.445 266.002 41.6059 265.785 41.6438C265.669 41.6641 265.555 41.6541 265.443 41.6139C265.344 41.5566 265.205 41.4464 265.027 41.2834L264.666 41.0105C264.513 40.9029 264.409 40.8239 264.356 40.7735C264.212 40.6344 264.13 40.5068 264.11 40.3909C264.077 40.2025 264.145 39.653 264.314 38.7423C264.398 38.2797 264.489 37.8159 264.587 37.3508L265.368 33.8766C265.526 33.0724 265.7 32.273 265.89 31.4782C266.077 30.669 266.316 30.2391 266.605 30.1884C266.765 30.1606 267.128 30.3137 267.694 30.6478C268.272 30.965 268.582 31.2467 268.625 31.493ZM265.925 44.2402C265.94 44.3271 265.911 44.5486 265.839 44.9047C265.685 45.6484 265.629 46.1361 265.669 46.368C265.673 46.472 265.683 46.5747 265.701 46.6761C265.687 46.7681 265.593 46.8293 265.419 46.8597C264.999 46.9331 264.529 46.8509 264.01 46.6132C263.425 46.3421 263.093 45.9819 263.015 45.5327C262.934 45.069 262.976 44.5837 263.141 44.077C263.321 43.5677 263.556 43.2877 263.845 43.2371C264.077 43.1966 264.466 43.2854 265.012 43.5036C265.57 43.7048 265.874 43.9503 265.925 44.2402Z" fill="#484B50"/>
</svg>
